<?xml version="1.0" encoding="utf-8"?>
<!-- Generator: Adobe Illustrator 18.1.0, SVG Export Plug-In . SVG Version: 6.00 Build 0)  -->
<!DOCTYPE svg PUBLIC "-//W3C//DTD SVG 1.1//EN" "https://www.w3.org/Graphics/SVG/1.1/DTD/svg11.dtd">
<svg version="1.1" id="Layer_1" xmlns="http://www.w3.org/2000/svg" xmlns:xlink="http://www.w3.org/1999/xlink" x="0px" y="0px"
	 viewBox="0 0 164.1 189.4" enable-background="new 0 0 164.1 189.4" xml:space="preserve">
<g>
	<polygon fill="#FFFFFF" points="49.6,119 60.4,119 55.1,104.2 	"/>
	<path fill="#FFFFFF" d="M82,0L0,47.4v94.7l82,47.4l82-47.4V47.4L82,0z M72.1,56.1h28.1v5.3H89.5v32.5h-6.8V61.4H72.1V56.1z
		 M59.3,80.3c-0.8-0.7-2.7-1.8-5.8-3.2c-3.2-1.5-5.4-2.9-6.7-4.2c-1.8-1.9-2.8-4.2-2.8-6.9c0-2.9,1.1-5.4,3.2-7.4
		c2.2-2.1,5.3-3.2,9.1-3.2c3.6,0,6.4,0.8,8.4,2.5c1.1,0.9,2,2.1,2.8,3.6l-5.4,3.4c-1.2-3-3.2-4.5-6.1-4.5c-1.5,0-2.8,0.5-3.8,1.5
		c-0.9,1-1.4,2.1-1.4,3.5c0,1.6,0.7,2.9,2,3.8c0.6,0.4,2.4,1.3,5.2,2.7c3.4,1.6,5.7,2.9,7,4.1c2,1.8,3,4.2,3,7.2
		c0,2.5-0.7,4.7-2.1,6.7c-2.4,3.3-6.1,5-11.3,5c-3.5,0-6.4-0.8-8.7-2.4c-1.2-0.8-2.2-1.8-2.9-2.8c-0.3-0.4-0.6-1-1.1-1.9l5.6-3.5
		c0.5,1.4,1.2,2.5,2.1,3.3c1.4,1.3,3.1,2,5.1,2c1.8,0,3.3-0.5,4.3-1.5c1.1-1,1.6-2.3,1.6-4C60.7,82.4,60.2,81.2,59.3,80.3z
		 M65.8,134.2L62.1,124H47.7L44,134.2h-6.8l14.6-37.7h7.1l14,37.7H65.8z M94.1,134.2l-9.4-16.1h-3.9v16.1H74V96.4h11.1
		c3.9,0,6.7,0.4,8.4,1.2c1.5,0.7,2.7,1.8,3.5,3.3c1,1.6,1.4,3.5,1.4,5.5c0,2.9-0.9,5.4-2.7,7.4c-1,1.1-2.4,2.1-4.3,3l10.6,17.2H94.1
		z M126.7,101.7h-10.7v32.5h-6.8v-32.5H98.7v-5.3h28.1V101.7z M126.8,93.8h-21.5V56.1h6.8v32.4h14.7V93.8z"/>
	<path fill="#FFFFFF" d="M89.6,102.8c-0.7-0.5-1.5-0.8-2.5-0.9c-0.5-0.1-1.2-0.1-2-0.1l-1.6,0h-2.7V113h3c0,0,0.1,0,0.2,0
		c1.8,0.1,3.3-0.2,4.7-0.9c1.8-0.9,2.8-2.7,2.8-5.2C91.4,104.9,90.8,103.6,89.6,102.8z"/>
</g>
</svg>
