<?xml version="1.0" encoding="utf-8"?>
<!-- Generator: Adobe Illustrator 18.1.1, SVG Export Plug-In . SVG Version: 6.00 Build 0)  -->
<!DOCTYPE svg PUBLIC "-//W3C//DTD SVG 1.1//EN" "http://www.w3.org/Graphics/SVG/1.1/DTD/svg11.dtd">
<svg version="1.1" id="Layer_1" xmlns="http://www.w3.org/2000/svg" xmlns:xlink="http://www.w3.org/1999/xlink" x="0px" y="0px"
	 viewBox="0.2 240.3 433.9 110.2" enable-background="new 0.2 240.3 433.9 110.2" xml:space="preserve">
<g>
	<path fill="#A6A8AB" d="M4146.2,4245C4146.1,4245,4146.1,4245,4146.2,4245c-1.6,0-2.9,0.6-4,1.7s-1.6,2.4-1.6,4s0.5,2.9,1.6,4
		s2.4,1.7,4,1.7s2.9-0.6,4-1.7c1-1.2,1.6-2.5,1.6-4.1c0-1.5-0.6-2.9-1.7-4S4147.7,4245,4146.2,4245z M4149.1,4253.6
		c-0.7,0.9-1.7,1.3-2.9,1.3c-1.2,0-2.2-0.4-2.9-1.2c-0.7-0.8-1.1-1.8-1.1-3s0.4-2.2,1.2-3c0.7-0.8,1.7-1.2,2.7-1.2
		c0.1,0,0.1,0,0.1,0c1.1,0.1,2,0.4,2.7,1.2c0.8,0.7,1.2,1.7,1.2,2.9C4150.1,4251.8,4149.7,4252.8,4149.1,4253.6z"/>
	<path fill="#A6A8AB" d="M4158.8,4245L4158.8,4245c-1.5,0-2.8,0.6-3.9,1.7s-1.7,2.4-1.7,4s0.6,2.9,1.7,4s2.4,1.7,3.9,1.7h0.1
		c1.6,0,2.9-0.6,4-1.7c1-1.2,1.5-2.5,1.5-4.1c0-1.5-0.5-2.9-1.7-4C4161.6,4245.5,4160.3,4245,4158.8,4245z M4161.7,4253.6
		c-0.7,0.9-1.7,1.3-2.8,1.3h-0.1c-1.2,0-2.1-0.4-2.8-1.2c-0.7-0.8-1.1-1.8-1.1-3s0.4-2.2,1.1-3c0.8-0.8,1.7-1.2,2.7-1.2h0.1
		c1.2,0.1,2.1,0.4,2.8,1.2c0.7,0.7,1.2,1.7,1.2,2.9C4162.7,4251.8,4162.4,4252.8,4161.7,4253.6z"/>
	<path fill="#A6A8AB" d="M4177.9,4245.1c-0.7,0-1.4,0.2-2.1,0.6c-0.6,0.5-1,1.2-1.4,1.9c-0.1-0.8-0.5-1.4-1.1-1.9s-1.2-0.7-2-0.7
		c-0.7,0-1.4,0.2-1.9,0.6c-0.6,0.4-1,1-1.3,1.7h-0.1c0-1.2,0-1.7,0-1.8c0-0.2-0.2-0.4-0.5-0.4c-0.1,0-0.2,0-0.4,0
		c-0.2,0-0.4,0-0.6,0v10.9h1.7v-6.3c0-1.1,0.2-1.9,0.6-2.4c0.6-0.7,1.2-1.1,1.9-1.1c0.8,0,1.4,0.4,1.9,1c0.2,0.4,0.4,1,0.4,1.9v6.3
		h-0.7v0.6h3.7v-0.6h-1.4v-5.3c0-0.6,0-1.2,0.1-1.4c0.1-0.5,0.3-0.9,0.5-1.3c0.6-0.9,1.3-1.2,2.2-1.2c0.7,0,1.4,0.4,1.7,1.2
		c0.2,0.4,0.3,1.1,0.3,2.2v6.5h1.7v-6.5c0-1.5-0.2-2.6-0.6-3.2C4180.1,4245.6,4179.2,4245.1,4177.9,4245.1z"/>
	<path fill="#A6A8AB" d="M4193.3,4250.9c0-1.6-0.4-2.9-1.2-3.9c-0.9-1.2-2.1-1.7-3.7-1.7c-0.1,0-0.1,0-0.1,0c-1.6,0-2.8,0.5-3.7,1.6
		c-0.9,1-1.3,2.2-1.3,3.8c0,1.7,0.4,3,1.3,4c0.9,1.1,2.1,1.7,3.7,1.7c0,0,0,0,0.1,0c1,0,2-0.3,2.9-0.9s1.4-1.4,1.7-2.3l-2.6-0.1v0.5
		h0.6c-0.5,0.9-1.3,1.3-2.6,1.3h-0.1c-0.5,0-1-0.1-1.4-0.4c-0.5-0.3-0.9-0.7-1.2-1.2c-0.4-0.8-0.6-1.7-0.6-2.4h3.2H4193.3z
		 M4186.3,4247.5c0.5-0.6,1.2-0.8,2.1-0.9c0,0,0,0,0.1,0c0.9,0,1.7,0.3,2.2,0.9c0.6,0.6,0.8,1.3,0.8,2.2h-3h-3
		C4185.4,4248.8,4185.7,4248.1,4186.3,4247.5z"/>
	<path fill="#A6A8AB" d="M4197.3,4247.9c0-1.4,0-2.1,0-2.2c-0.1-0.3-0.2-0.4-0.6-0.4c-0.1,0-0.2,0-0.4,0c-0.2,0-0.4,0-0.6,0v10.5
		h-0.6v0.4h3.3v-0.4h-1v-5c0-0.4,0-0.6,0.1-0.9c0.1-0.9,0.4-1.7,1-2.3c0.6-0.6,1.4-0.9,2.3-0.9h0.3v-1.6l-0.6-0.1
		C4199.1,4245,4198,4245.9,4197.3,4247.9z"/>
	<path fill="#A6A8AB" d="M4212.5,4249.7c0-1.7-0.3-2.9-0.9-3.5c-0.6-0.7-1.8-1.1-3.4-1.1c-0.1,0-0.1,0-0.3,0c-1,0-1.9,0.2-2.7,0.6
		c-1,0.5-1.6,1.3-1.7,2.3h1.6c0.1-0.6,0.5-1.2,1.1-1.4c0.4-0.2,0.9-0.3,1.7-0.3c0.1,0,0.1,0,0.1,0c1,0,1.7,0.2,2.2,0.6
		c0.4,0.4,0.6,1.1,0.6,2.1v0.4h-1.4c-0.5,0-1,0-1.5,0.1c-1.2,0.1-2,0.3-2.7,0.6s-1.2,0.7-1.5,1.2c-0.4,0.6-0.5,1.2-0.5,1.8
		c0,1.1,0.4,1.9,1.2,2.5c0.6,0.5,1.6,0.8,2.7,0.8c0.3,0,0.6,0,0.9-0.1c1.4-0.2,2.3-0.9,3-2.2l0.1,2h1.7c-0.1-0.5-0.3-1.3-0.3-2.3
		L4212.5,4249.7L4212.5,4249.7z M4210.9,4251.5c0,1-0.4,1.8-0.9,2.5c-0.6,0.6-1.2,1-2,1.1c-0.1,0.1-0.4,0.1-0.5,0.1
		c-0.7,0-1.2-0.1-1.7-0.4c-0.5-0.4-0.7-0.9-0.7-1.5c0-1.3,0.9-2.1,2.9-2.4c0.5-0.1,1-0.1,1.5-0.1h1.4L4210.9,4251.5L4210.9,4251.5z"
		/>
	<path fill="#A6A8AB" d="M4222.8,4245.3c-0.4,0-0.5,0.1-0.6,0.4c0,0,0,0.6,0,1.7c-0.7-1.6-1.9-2.3-3.5-2.3c-1.4,0-2.4,0.5-3.1,1.7
		c-0.3,0.6-0.5,1.7-0.5,3.5v6h1.7v-6.8c0-1,0.1-1.7,0.4-2c0.4-0.6,1-0.9,1.9-0.9s1.6,0.4,2.2,1.1c0.6,0.6,0.9,1.7,0.9,3v5.7h1.7
		v-10.9c-0.1,0-0.4,0-0.6,0C4223,4245.3,4222.9,4245.3,4222.8,4245.3z"/>
	<path fill="#A6A8AB" d="M4234.4,4254.9c-0.4-0.1-0.9-0.3-1.6-0.4c-0.3,0-0.9,0-1.7-0.1c-0.2,0-0.5,0-0.7,0c-1-0.1-1.7-0.1-1.9-0.1
		c-0.5-0.1-0.8-0.4-0.8-0.9c0-0.3,0.1-0.5,0.4-0.7s0.5-0.3,0.8-0.3c-0.1,0,0.1,0,0.7,0.1c0.1,0.1,0.4,0.1,0.8,0.1
		c1.2,0,2-0.3,2.7-0.8c0.9-0.7,1.4-1.7,1.4-2.7s-0.4-1.9-1.1-2.7l-0.9-0.7c-0.6-0.3-1.4-0.4-2.2-0.4c-1.2,0-2.1,0.3-2.9,0.9
		c-0.9,0.7-1.3,1.7-1.3,2.7c0,1.2,0.5,2.2,1.4,2.9c-1,0.5-1.5,1.2-1.5,1.9c0,0.7,0.4,1.3,1,1.7c-1.1,0.4-1.7,1.2-1.7,2.2
		s0.6,1.9,1.9,2.4c0.7,0.2,1.7,0.4,3,0.4c0.1,0,0.1,0,0.2,0c3.6,0,5.4-1.1,5.4-3.2c0-0.5-0.1-1-0.5-1.4
		C4235.2,4255.3,4234.9,4255,4234.4,4254.9z M4228.7,4247.1c0.4-0.5,1-0.7,1.7-0.7s1.3,0.2,1.7,0.7c0.5,0.4,0.7,1,0.7,1.7
		s-0.2,1.4-0.6,1.8s-1.1,0.6-1.8,0.6c-0.7,0-1.3-0.2-1.8-0.6c-0.4-0.4-0.6-1-0.6-1.7S4228.2,4247.6,4228.7,4247.1z M4233.4,4258.6
		c-0.6,0.3-1.6,0.4-2.8,0.4c-0.1,0-0.1,0-0.2,0c-0.7,0-1.4-0.1-1.9-0.3c-0.9-0.3-1.4-0.8-1.4-1.4s0.4-1.2,1.2-1.5l2,0.1l0.6,0.1h1.1
		c1.6,0,2.4,0.4,2.4,1.3C4234.5,4257.9,4234.1,4258.4,4233.4,4258.6z"/>
	<path fill="#A6A8AB" d="M4258.4,4247.9L4258.4,4247.9c-0.1-1.4-0.1-2.1-0.1-2.2c-0.1-0.3-0.2-0.4-0.6-0.4c-0.1,0-0.1,0-0.4,0
		s-0.4,0-0.6,0v10.5h-0.6v0.4h3.3v-0.4h-1v-5c0-0.4,0.1-0.6,0.1-0.9c0.1-0.9,0.4-1.7,1.1-2.3c0.6-0.6,1.4-0.9,2.2-0.9h0.4v-1.6
		l-0.6-0.1C4260.2,4245,4259.1,4245.9,4258.4,4247.9z"/>
	<path fill="#A6A8AB" d="M4273.8,4250.9c0.1-1.6-0.3-2.9-1.1-3.9c-0.9-1.2-2.1-1.7-3.7-1.7s-2.8,0.5-3.7,1.6c-0.9,1-1.3,2.2-1.3,3.8
		c0,1.7,0.4,3,1.2,4c0.9,1.1,2.2,1.7,3.7,1.7c1.1,0,2-0.3,2.9-0.9s1.4-1.4,1.8-2.3l-2.6-0.1v0.5h0.6c-0.5,0.9-1.4,1.3-2.6,1.3
		c-0.1,0-0.1,0-0.1,0c-0.5,0-1-0.1-1.5-0.4s-0.9-0.7-1.2-1.2c-0.4-0.8-0.6-1.7-0.6-2.4h3.3H4273.8z M4266.8,4247.5
		c0.6-0.6,1.3-0.8,2.2-0.9c0.9,0,1.7,0.3,2.2,0.9s0.8,1.3,0.7,2.2h-3h-3C4265.9,4248.8,4266.2,4248.1,4266.8,4247.5z"/>
	<path fill="#A6A8AB" d="M4283.6,4250.7c-0.4-0.3-1.2-0.6-2.2-0.7l-1.7-0.3c-0.8-0.1-1.3-0.3-1.4-0.3c-0.5-0.2-0.7-0.6-0.7-1.1
		s0.3-0.9,0.8-1.2c0.4-0.2,0.9-0.4,1.5-0.4c1.4,0,2.3,0.5,2.7,1.4l1.7-0.1c-0.4-1.8-1.9-2.7-4.3-2.7c-1.1,0-2,0.3-2.7,0.8
		c-0.9,0.6-1.3,1.4-1.3,2.4c0,0.9,0.4,1.5,1,1.9c0.5,0.4,1.3,0.6,2.4,0.8l1.7,0.4c1.4,0.2,2.2,0.8,2.2,1.7c0,0.6-0.3,1.1-0.9,1.4
		c-0.5,0.3-1.1,0.4-1.8,0.4c-1.9,0-3-0.6-3.2-1.7h-1.7c0.2,1,0.9,1.8,1.8,2.4c0.8,0.5,1.8,0.7,3,0.7s2.3-0.2,3.1-0.7
		c1-0.6,1.4-1.5,1.4-2.7C4284.9,4252.1,4284.5,4251.2,4283.6,4250.7z"/>
	<path fill="#A6A8AB" d="M4294.9,4250.7c-0.5-0.3-1.3-0.6-2.3-0.7l-1.6-0.3c-0.9-0.1-1.4-0.3-1.4-0.3c-0.5-0.2-0.7-0.6-0.7-1.1
		s0.3-0.9,0.8-1.2c0.4-0.2,0.9-0.4,1.5-0.4c1.4,0,2.3,0.5,2.7,1.4l1.7-0.1c-0.5-1.8-1.9-2.7-4.3-2.7c-1.2,0-2.1,0.3-2.8,0.8
		c-0.9,0.6-1.3,1.4-1.3,2.4c0,0.9,0.4,1.5,1.1,1.9c0.5,0.4,1.2,0.6,2.3,0.8l1.8,0.4c1.4,0.2,2.1,0.8,2.1,1.7c0,0.6-0.3,1.1-0.9,1.4
		c-0.5,0.3-1.1,0.4-1.7,0.4c-2,0-3-0.6-3.2-1.7h-1.7c0.3,1,0.9,1.8,1.8,2.4c0.9,0.5,1.9,0.7,3,0.7c1.2,0,2.2-0.2,3-0.7
		c1-0.6,1.5-1.5,1.5-2.7C4296.2,4252.1,4295.7,4251.2,4294.9,4250.7z"/>
	<path fill="#A6A8AB" d="M4134.5,4245.1c-0.1,0-0.2,0-0.4,0c-1.2,0.1-2.2,0.8-2.8,2.1h-0.1v-0.1v-6.5v-1.4h0.7v-0.6h-3.7v0.6h1.4
		v1.8v15.3h0.8l0.6-1.9c0.7,1.4,1.8,2,3.2,2.1c0.1,0,0.1,0,0.1,0c1.5,0,2.7-0.6,3.5-1.9c0.7-1.1,1.1-2.4,1.1-4
		c0-1.5-0.4-2.7-1.1-3.8C4137,4245.7,4136,4245.1,4134.5,4245.1z M4136.5,4253.7c-0.5,0.9-1.2,1.4-2.2,1.4c-0.1,0-0.1,0-0.1,0
		c-1,0-1.8-0.4-2.3-1.2c-0.4-0.6-0.6-1.4-0.6-2.2v-1.9c0-0.9,0.3-1.6,0.9-2.3c0.6-0.7,1.3-1,2.1-1.1c0,0,0,0,0.1,0
		c1,0,1.8,0.6,2.3,1.6c0.4,0.8,0.6,1.8,0.6,3C4137.1,4252,4136.9,4253,4136.5,4253.7z"/>
	<path fill="#A6A8AB" d="M4250.1,4245c-0.1,0-0.1,0-0.2,0c-1.4,0.1-2.4,0.7-3.2,2.1l-0.6-1.9h-0.8v15.3v1.9l-1.4-0.1v0.6h3.7v-0.6
		l-0.7,0.1v-1.4v-6.4v-0.1h0.1c0.6,1.2,1.6,1.9,2.8,2c0.1,0,0.2,0,0.4,0c1.4,0,2.5-0.6,3.4-1.7c0.6-1,1-2.3,1-3.8
		c0-1.6-0.4-2.9-1.1-4C4252.7,4245.7,4251.5,4245,4250.1,4245z M4252.2,4253.5c-0.5,1-1.3,1.6-2.3,1.6c-0.1,0-0.1,0-0.1,0
		c-0.8-0.1-1.5-0.4-2.1-1.1c-0.6-0.6-0.9-1.4-0.9-2.3v-1.9c0-0.8,0.2-1.5,0.6-2.2c0.5-0.8,1.3-1.2,2.3-1.2c0,0,0,0,0.1,0
		c1,0,1.7,0.4,2.2,1.4c0.4,0.8,0.6,1.7,0.6,2.8C4252.8,4251.7,4252.6,4252.7,4252.2,4253.5z"/>
</g>
<path fill="#FEC057" d="M4207.7,4227.5c-1.2,0.4-2.2,1-3.2,1.7l-3.5-4c0.9-0.7,1.9-1.4,2.9-2.1L4207.7,4227.5z"/>
<path fill="#007AC2" d="M4203.9,4229.6c-0.9,0.6-1.8,1.4-2.7,2.2l-3.4-3.9c0.8-0.7,1.7-1.5,2.7-2.3L4203.9,4229.6z"/>
<path fill="#EF3E42" d="M4200.5,4232.4c-0.6,0.6-1.3,1.2-1.9,1.9c-0.1,0.1-0.4,0.4-0.6,0.6l-3.5-4c0.1-0.1,0.3-0.3,0.5-0.4
	c0.6-0.6,1.3-1.3,2.1-2L4200.5,4232.4z"/>
<path fill="#A6A8AB" d="M4214.4,4220.6c4.2,0.9,18.1,12.7,18.7,15.6c0.4,2-1.6,3.5-3.1,2.7c-3.3-1.9-11.2-13-19.9-11.9
	c-0.5,0.1-1,0.2-1.5,0.4l-4-4.7c0.9-0.5,1.7-0.9,2.5-1.3C4210.1,4220,4212.1,4220.1,4214.4,4220.6L4214.4,4220.6z M4197.4,4235.5
	c-0.6,0.6-1.3,1.2-1.8,1.6c-3.3,2.7-5.9-0.1-4-2.8c0.6-0.8,1.4-1.7,2.3-2.7L4197.4,4235.5z"/>
<g>
	<path fill="#A6A8AB" d="M4146.2,4245C4146.1,4245,4146.1,4245,4146.2,4245c-1.6,0-2.9,0.6-4,1.7s-1.6,2.4-1.6,4s0.5,2.9,1.6,4
		s2.4,1.7,4,1.7s2.9-0.6,4-1.7c1-1.2,1.6-2.5,1.6-4.1c0-1.5-0.6-2.9-1.7-4S4147.7,4245,4146.2,4245z M4149.1,4253.6
		c-0.7,0.9-1.7,1.3-2.9,1.3c-1.2,0-2.2-0.4-2.9-1.2c-0.7-0.8-1.1-1.8-1.1-3s0.4-2.2,1.2-3c0.7-0.8,1.7-1.2,2.7-1.2
		c0.1,0,0.1,0,0.1,0c1.1,0.1,2,0.4,2.7,1.2c0.8,0.7,1.2,1.7,1.2,2.9C4150.1,4251.8,4149.7,4252.8,4149.1,4253.6z"/>
	<path fill="#A6A8AB" d="M4158.8,4245L4158.8,4245c-1.5,0-2.8,0.6-3.9,1.7s-1.7,2.4-1.7,4s0.6,2.9,1.7,4s2.4,1.7,3.9,1.7h0.1
		c1.6,0,2.9-0.6,4-1.7c1-1.2,1.5-2.5,1.5-4.1c0-1.5-0.5-2.9-1.7-4C4161.6,4245.5,4160.3,4245,4158.8,4245z M4161.7,4253.6
		c-0.7,0.9-1.7,1.3-2.8,1.3h-0.1c-1.2,0-2.1-0.4-2.8-1.2c-0.7-0.8-1.1-1.8-1.1-3s0.4-2.2,1.1-3c0.8-0.8,1.7-1.2,2.7-1.2h0.1
		c1.2,0.1,2.1,0.4,2.8,1.2c0.7,0.7,1.2,1.7,1.2,2.9C4162.7,4251.8,4162.4,4252.8,4161.7,4253.6z"/>
	<path fill="#A6A8AB" d="M4177.9,4245.1c-0.7,0-1.4,0.2-2.1,0.6c-0.6,0.5-1,1.2-1.4,1.9c-0.1-0.8-0.5-1.4-1.1-1.9s-1.2-0.7-2-0.7
		c-0.7,0-1.4,0.2-1.9,0.6c-0.6,0.4-1,1-1.3,1.7h-0.1c0-1.2,0-1.7,0-1.8c0-0.2-0.2-0.4-0.5-0.4c-0.1,0-0.2,0-0.4,0
		c-0.2,0-0.4,0-0.6,0v10.9h1.7v-6.3c0-1.1,0.2-1.9,0.6-2.4c0.6-0.7,1.2-1.1,1.9-1.1c0.8,0,1.4,0.4,1.9,1c0.2,0.4,0.4,1,0.4,1.9v6.3
		h-0.7v0.6h3.7v-0.6h-1.4v-5.3c0-0.6,0-1.2,0.1-1.4c0.1-0.5,0.3-0.9,0.5-1.3c0.6-0.9,1.3-1.2,2.2-1.2c0.7,0,1.4,0.4,1.7,1.2
		c0.2,0.4,0.3,1.1,0.3,2.2v6.5h1.7v-6.5c0-1.5-0.2-2.6-0.6-3.2C4180.1,4245.6,4179.2,4245.1,4177.9,4245.1z"/>
	<path fill="#A6A8AB" d="M4193.3,4250.9c0-1.6-0.4-2.9-1.2-3.9c-0.9-1.2-2.1-1.7-3.7-1.7c-0.1,0-0.1,0-0.1,0c-1.6,0-2.8,0.5-3.7,1.6
		c-0.9,1-1.3,2.2-1.3,3.8c0,1.7,0.4,3,1.3,4c0.9,1.1,2.1,1.7,3.7,1.7c0,0,0,0,0.1,0c1,0,2-0.3,2.9-0.9s1.4-1.4,1.7-2.3l-2.6-0.1v0.5
		h0.6c-0.5,0.9-1.3,1.3-2.6,1.3h-0.1c-0.5,0-1-0.1-1.4-0.4c-0.5-0.3-0.9-0.7-1.2-1.2c-0.4-0.8-0.6-1.7-0.6-2.4h3.2H4193.3z
		 M4186.3,4247.5c0.5-0.6,1.2-0.8,2.1-0.9c0,0,0,0,0.1,0c0.9,0,1.7,0.3,2.2,0.9c0.6,0.6,0.8,1.3,0.8,2.2h-3h-3
		C4185.4,4248.8,4185.7,4248.1,4186.3,4247.5z"/>
	<path fill="#A6A8AB" d="M4197.3,4247.9c0-1.4,0-2.1,0-2.2c-0.1-0.3-0.2-0.4-0.6-0.4c-0.1,0-0.2,0-0.4,0c-0.2,0-0.4,0-0.6,0v10.5
		h-0.6v0.4h3.3v-0.4h-1v-5c0-0.4,0-0.6,0.1-0.9c0.1-0.9,0.4-1.7,1-2.3c0.6-0.6,1.4-0.9,2.3-0.9h0.3v-1.6l-0.6-0.1
		C4199.1,4245,4198,4245.9,4197.3,4247.9z"/>
	<path fill="#A6A8AB" d="M4212.5,4249.7c0-1.7-0.3-2.9-0.9-3.5c-0.6-0.7-1.8-1.1-3.4-1.1c-0.1,0-0.1,0-0.3,0c-1,0-1.9,0.2-2.7,0.6
		c-1,0.5-1.6,1.3-1.7,2.3h1.6c0.1-0.6,0.5-1.2,1.1-1.4c0.4-0.2,0.9-0.3,1.7-0.3c0.1,0,0.1,0,0.1,0c1,0,1.7,0.2,2.2,0.6
		c0.4,0.4,0.6,1.1,0.6,2.1v0.4h-1.4c-0.5,0-1,0-1.5,0.1c-1.2,0.1-2,0.3-2.7,0.6s-1.2,0.7-1.5,1.2c-0.4,0.6-0.5,1.2-0.5,1.8
		c0,1.1,0.4,1.9,1.2,2.5c0.6,0.5,1.6,0.8,2.7,0.8c0.3,0,0.6,0,0.9-0.1c1.4-0.2,2.3-0.9,3-2.2l0.1,2h1.7c-0.1-0.5-0.3-1.3-0.3-2.3
		L4212.5,4249.7L4212.5,4249.7z M4210.9,4251.5c0,1-0.4,1.8-0.9,2.5c-0.6,0.6-1.2,1-2,1.1c-0.1,0.1-0.4,0.1-0.5,0.1
		c-0.7,0-1.2-0.1-1.7-0.4c-0.5-0.4-0.7-0.9-0.7-1.5c0-1.3,0.9-2.1,2.9-2.4c0.5-0.1,1-0.1,1.5-0.1h1.4L4210.9,4251.5L4210.9,4251.5z"
		/>
	<path fill="#A6A8AB" d="M4222.8,4245.3c-0.4,0-0.5,0.1-0.6,0.4c0,0,0,0.6,0,1.7c-0.7-1.6-1.9-2.3-3.5-2.3c-1.4,0-2.4,0.5-3.1,1.7
		c-0.3,0.6-0.5,1.7-0.5,3.5v6h1.7v-6.8c0-1,0.1-1.7,0.4-2c0.4-0.6,1-0.9,1.9-0.9s1.6,0.4,2.2,1.1c0.6,0.6,0.9,1.7,0.9,3v5.7h1.7
		v-10.9c-0.1,0-0.4,0-0.6,0C4223,4245.3,4222.9,4245.3,4222.8,4245.3z"/>
	<path fill="#A6A8AB" d="M4234.4,4254.9c-0.4-0.1-0.9-0.3-1.6-0.4c-0.3,0-0.9,0-1.7-0.1c-0.2,0-0.5,0-0.7,0c-1-0.1-1.7-0.1-1.9-0.1
		c-0.5-0.1-0.8-0.4-0.8-0.9c0-0.3,0.1-0.5,0.4-0.7s0.5-0.3,0.8-0.3c-0.1,0,0.1,0,0.7,0.1c0.1,0.1,0.4,0.1,0.8,0.1
		c1.2,0,2-0.3,2.7-0.8c0.9-0.7,1.4-1.7,1.4-2.7s-0.4-1.9-1.1-2.7l-0.9-0.7c-0.6-0.3-1.4-0.4-2.2-0.4c-1.2,0-2.1,0.3-2.9,0.9
		c-0.9,0.7-1.3,1.7-1.3,2.7c0,1.2,0.5,2.2,1.4,2.9c-1,0.5-1.5,1.2-1.5,1.9c0,0.7,0.4,1.3,1,1.7c-1.1,0.4-1.7,1.2-1.7,2.2
		s0.6,1.9,1.9,2.4c0.7,0.2,1.7,0.4,3,0.4c0.1,0,0.1,0,0.2,0c3.6,0,5.4-1.1,5.4-3.2c0-0.5-0.1-1-0.5-1.4
		C4235.2,4255.3,4234.9,4255,4234.4,4254.9z M4228.7,4247.1c0.4-0.5,1-0.7,1.7-0.7s1.3,0.2,1.7,0.7c0.5,0.4,0.7,1,0.7,1.7
		s-0.2,1.4-0.6,1.8s-1.1,0.6-1.8,0.6c-0.7,0-1.3-0.2-1.8-0.6c-0.4-0.4-0.6-1-0.6-1.7S4228.2,4247.6,4228.7,4247.1z M4233.4,4258.6
		c-0.6,0.3-1.6,0.4-2.8,0.4c-0.1,0-0.1,0-0.2,0c-0.7,0-1.4-0.1-1.9-0.3c-0.9-0.3-1.4-0.8-1.4-1.4s0.4-1.2,1.2-1.5l2,0.1l0.6,0.1h1.1
		c1.6,0,2.4,0.4,2.4,1.3C4234.5,4257.9,4234.1,4258.4,4233.4,4258.6z"/>
	<path fill="#A6A8AB" d="M4258.4,4247.9L4258.4,4247.9c-0.1-1.4-0.1-2.1-0.1-2.2c-0.1-0.3-0.2-0.4-0.6-0.4c-0.1,0-0.1,0-0.4,0
		s-0.4,0-0.6,0v10.5h-0.6v0.4h3.3v-0.4h-1v-5c0-0.4,0.1-0.6,0.1-0.9c0.1-0.9,0.4-1.7,1.1-2.3c0.6-0.6,1.4-0.9,2.2-0.9h0.4v-1.6
		l-0.6-0.1C4260.2,4245,4259.1,4245.9,4258.4,4247.9z"/>
	<path fill="#A6A8AB" d="M4273.8,4250.9c0.1-1.6-0.3-2.9-1.1-3.9c-0.9-1.2-2.1-1.7-3.7-1.7s-2.8,0.5-3.7,1.6c-0.9,1-1.3,2.2-1.3,3.8
		c0,1.7,0.4,3,1.2,4c0.9,1.1,2.2,1.7,3.7,1.7c1.1,0,2-0.3,2.9-0.9s1.4-1.4,1.8-2.3l-2.6-0.1v0.5h0.6c-0.5,0.9-1.4,1.3-2.6,1.3
		c-0.1,0-0.1,0-0.1,0c-0.5,0-1-0.1-1.5-0.4s-0.9-0.7-1.2-1.2c-0.4-0.8-0.6-1.7-0.6-2.4h3.3H4273.8z M4266.8,4247.5
		c0.6-0.6,1.3-0.8,2.2-0.9c0.9,0,1.7,0.3,2.2,0.9s0.8,1.3,0.7,2.2h-3h-3C4265.9,4248.8,4266.2,4248.1,4266.8,4247.5z"/>
	<path fill="#A6A8AB" d="M4283.6,4250.7c-0.4-0.3-1.2-0.6-2.2-0.7l-1.7-0.3c-0.8-0.1-1.3-0.3-1.4-0.3c-0.5-0.2-0.7-0.6-0.7-1.1
		s0.3-0.9,0.8-1.2c0.4-0.2,0.9-0.4,1.5-0.4c1.4,0,2.3,0.5,2.7,1.4l1.7-0.1c-0.4-1.8-1.9-2.7-4.3-2.7c-1.1,0-2,0.3-2.7,0.8
		c-0.9,0.6-1.3,1.4-1.3,2.4c0,0.9,0.4,1.5,1,1.9c0.5,0.4,1.3,0.6,2.4,0.8l1.7,0.4c1.4,0.2,2.2,0.8,2.2,1.7c0,0.6-0.3,1.1-0.9,1.4
		c-0.5,0.3-1.1,0.4-1.8,0.4c-1.9,0-3-0.6-3.2-1.7h-1.7c0.2,1,0.9,1.8,1.8,2.4c0.8,0.5,1.8,0.7,3,0.7s2.3-0.2,3.1-0.7
		c1-0.6,1.4-1.5,1.4-2.7C4284.9,4252.1,4284.5,4251.2,4283.6,4250.7z"/>
	<path fill="#A6A8AB" d="M4294.9,4250.7c-0.5-0.3-1.3-0.6-2.3-0.7l-1.6-0.3c-0.9-0.1-1.4-0.3-1.4-0.3c-0.5-0.2-0.7-0.6-0.7-1.1
		s0.3-0.9,0.8-1.2c0.4-0.2,0.9-0.4,1.5-0.4c1.4,0,2.3,0.5,2.7,1.4l1.7-0.1c-0.5-1.8-1.9-2.7-4.3-2.7c-1.2,0-2.1,0.3-2.8,0.8
		c-0.9,0.6-1.3,1.4-1.3,2.4c0,0.9,0.4,1.5,1.1,1.9c0.5,0.4,1.2,0.6,2.3,0.8l1.8,0.4c1.4,0.2,2.1,0.8,2.1,1.7c0,0.6-0.3,1.1-0.9,1.4
		c-0.5,0.3-1.1,0.4-1.7,0.4c-2,0-3-0.6-3.2-1.7h-1.7c0.3,1,0.9,1.8,1.8,2.4c0.9,0.5,1.9,0.7,3,0.7c1.2,0,2.2-0.2,3-0.7
		c1-0.6,1.5-1.5,1.5-2.7C4296.2,4252.1,4295.7,4251.2,4294.9,4250.7z"/>
	<path fill="#A6A8AB" d="M4134.5,4245.1c-0.1,0-0.2,0-0.4,0c-1.2,0.1-2.2,0.8-2.8,2.1h-0.1v-0.1v-6.5v-1.4h0.7v-0.6h-3.7v0.6h1.4
		v1.8v15.3h0.8l0.6-1.9c0.7,1.4,1.8,2,3.2,2.1c0.1,0,0.1,0,0.1,0c1.5,0,2.7-0.6,3.5-1.9c0.7-1.1,1.1-2.4,1.1-4
		c0-1.5-0.4-2.7-1.1-3.8C4137,4245.7,4136,4245.1,4134.5,4245.1z M4136.5,4253.7c-0.5,0.9-1.2,1.4-2.2,1.4c-0.1,0-0.1,0-0.1,0
		c-1,0-1.8-0.4-2.3-1.2c-0.4-0.6-0.6-1.4-0.6-2.2v-1.9c0-0.9,0.3-1.6,0.9-2.3c0.6-0.7,1.3-1,2.1-1.1c0,0,0,0,0.1,0
		c1,0,1.8,0.6,2.3,1.6c0.4,0.8,0.6,1.8,0.6,3C4137.1,4252,4136.9,4253,4136.5,4253.7z"/>
	<path fill="#A6A8AB" d="M4250.1,4245c-0.1,0-0.1,0-0.2,0c-1.4,0.1-2.4,0.7-3.2,2.1l-0.6-1.9h-0.8v15.3v1.9l-1.4-0.1v0.6h3.7v-0.6
		l-0.7,0.1v-1.4v-6.4v-0.1h0.1c0.6,1.2,1.6,1.9,2.8,2c0.1,0,0.2,0,0.4,0c1.4,0,2.5-0.6,3.4-1.7c0.6-1,1-2.3,1-3.8
		c0-1.6-0.4-2.9-1.1-4C4252.7,4245.7,4251.5,4245,4250.1,4245z M4252.2,4253.5c-0.5,1-1.3,1.6-2.3,1.6c-0.1,0-0.1,0-0.1,0
		c-0.8-0.1-1.5-0.4-2.1-1.1c-0.6-0.6-0.9-1.4-0.9-2.3v-1.9c0-0.8,0.2-1.5,0.6-2.2c0.5-0.8,1.3-1.2,2.3-1.2c0,0,0,0,0.1,0
		c1,0,1.7,0.4,2.2,1.4c0.4,0.8,0.6,1.7,0.6,2.8C4252.8,4251.7,4252.6,4252.7,4252.2,4253.5z"/>
</g>
<path fill="#FEC057" d="M4207.7,4227.5c-1.2,0.4-2.2,1-3.2,1.7l-3.5-4c0.9-0.7,1.9-1.4,2.9-2.1L4207.7,4227.5z"/>
<path fill="#007AC2" d="M4203.9,4229.6c-0.9,0.6-1.8,1.4-2.7,2.2l-3.4-3.9c0.8-0.7,1.7-1.5,2.7-2.3L4203.9,4229.6z"/>
<path fill="#EF3E42" d="M4200.5,4232.4c-0.6,0.6-1.3,1.2-1.9,1.9c-0.1,0.1-0.4,0.4-0.6,0.6l-3.5-4c0.1-0.1,0.3-0.3,0.5-0.4
	c0.6-0.6,1.3-1.3,2.1-2L4200.5,4232.4z"/>
<path fill="#A6A8AB" d="M4214.4,4220.6c4.2,0.9,18.1,12.7,18.7,15.6c0.4,2-1.6,3.5-3.1,2.7c-3.3-1.9-11.2-13-19.9-11.9
	c-0.5,0.1-1,0.2-1.5,0.4l-4-4.7c0.9-0.5,1.7-0.9,2.5-1.3C4210.1,4220,4212.1,4220.1,4214.4,4220.6L4214.4,4220.6z M4197.4,4235.5
	c-0.6,0.6-1.3,1.2-1.8,1.6c-3.3,2.7-5.9-0.1-4-2.8c0.6-0.8,1.4-1.7,2.3-2.7L4197.4,4235.5z"/>
<g>
	<g>
		<path fill="#A6A8AB" d="M42.5,302.7v-2.2C42.5,301.2,42.5,301.9,42.5,302.7C42.5,302.7,42.5,302.7,42.5,302.7z"/>
		<path fill="#333333" d="M42.4,292.7c0,0-0.5-1.8,1.5-1.8c8.4,0,12.9-9.9,12.9-15c0-3.5,0.1-20.8,0.1-26.1c-0.5,0.3-8,5.6-8,5.6
			l-8.6-5.5l-8.1,5.6l-8.5-4.8l0,25.2c0,0-0.7,15,12.5,15c0.8,0,1.9,0.5,1.8,1.7L38,343.3l4.5,0L42.4,292.7z"/>
		<path fill="#A6A8AB" d="M42.5,294.5v6C42.5,298.3,42.5,296.4,42.5,294.5z"/>
		<path fill="#333333" d="M51.2,295.8c0-3.8-6.4,3.6-9.2,6.9v17.3C44.2,319.6,51.2,320.5,51.2,295.8z"/>
	</g>
	<polygon fill="#FEC057" points="39.8,253.5 34.9,257.1 47.3,263.7 47.3,258.4 	"/>
	<path fill="#007AC2" d="M53.5,271v-14.9l-3.4,2.4v1v9.2v15.4C54,279,53.5,271,53.5,271z"/>
	<path fill="#EF3E42" d="M26.8,256.2c0,0.1,0,1.7,0,14.5c0,18.3,6.5,16.6,14,16.6c3.2,0,5.1-0.6,6.5-1.5v-18.7L26.8,256.2z"/>
</g>
<g>
	<path fill="#333333" d="M95.9,319.9c-2.5,0-5.2,0.1-7.8,0.1c-2,0-4,0-6-0.2c0.1-12.6,0.3-27.8,0.6-40.4c-2.7-0.1-4.6-0.2-5.8-0.2
		c-0.1-0.8-0.1-1.6-0.1-2.3c0-1.2,0.1-2.3,0.2-3.5c1.9,0,3.9,0,6,0.1c1.8,0,3.9-0.1,6-0.1c4.5,0,9,0.4,10.5,3.2
		c1.4,2.6,1.9,5.9,1.9,9c0,3.2-0.5,6.1-1,7.8c-0.6,2.1-1.9,3.2-2.5,3.8c3.2,1.7,4.5,7.2,4.5,12.1c0,3-0.5,5.8-1.3,7.5
		C99.9,319.2,97.9,319.9,95.9,319.9z M88.6,300.6c-0.1,4.4,0.2,9.1,0.1,13.6c1.7,0.6,3.9,0.3,5.4-0.1c1.3-0.8,1.7-2.5,1.7-4.7
		c0-1.3-0.1-2.8-0.3-4.5C94.7,300.4,92,300.3,88.6,300.6z M88.8,279.6c-0.3,5.4-0.1,10.7-0.1,15.6c1.4-0.1,4.7,0.2,5.4-1
		c1-1.7,1.4-4.1,1.4-6.5c0-1.9-0.2-3.9-0.6-5.7C94.3,279.2,91,279.5,88.8,279.6z"/>
	<path fill="#333333" d="M120.4,314.6c1.4-0.7,3.1-2.4,7.9-9c0.9,0.8,1.8,1.9,2.6,3.2c-4,7.4-6.9,10.1-8.6,11.1
		c-1,0.6-3.1,1.1-5.2,1.1c-3.7,0-7.9-1.3-8.3-5.4c-0.5-2.6-0.5-7.2-0.6-10c-0.1-4.9-0.1-20-0.3-32.5c0-2.2,0-2.7,0-3.1
		c0-3.2,0.4-7.1,4.5-8.3c0.8-0.2,2.1-0.5,3.6-0.5c2.7,0,6,0.9,6.8,4.5c1.4,6-0.2,8.7-2,13.6c-1.3,3.6-2.6,5.5-5.8,12.3
		c-0.2,4.3,0.4,14.5,1,21.8C116,315,118.7,315.4,120.4,314.6z M113.7,269.3v4.4c-0.1,2.1,0.3,5.2,0.6,9.4c2.5-4.9,3.6-10.8,3.8-12.6
		C118.8,264.4,113.7,266,113.7,269.3z"/>
	<path fill="#333333" d="M145.5,299.1c-0.1,2.8-0.3,5.4-0.5,6.9c-0.3,5.4-0.7,9.3-1.4,10.8c-1.4,2.8-4.5,4-9.1,4
		c-3.4,0-8.6-1.2-9.1-4.5c-0.2-1-0.2-2.8-0.2-4.7c0-3,0.1-6.4,0.2-9c0.2-4.5,0.4-8.8,0.7-13.2c0.2-3.6,3.4-4.7,7.3-5
		c0.7-0.1,1.8-0.2,3.2-0.2c3.7,0,8.8,0.9,9,6.7c1,0.5,2.5,0,4.4-0.3c1.3-0.2,3.1-0.9,6.3-2.5c0.6,1.6,1,2.8,1.3,4.2
		c-1.2,1.4-3.5,2.4-5.7,3.1c-0.9,0.3-3.3,1-6.3,0.8C145.5,297.1,145.6,298.1,145.5,299.1z M136.1,293.5c-0.5-1.4-0.1-3.3,0.8-4.2
		c-3.4-0.3-4.9,1-4.9,3.1c-0.2,6.5-0.7,20.4-0.1,21.6c0.8,1.4,6,1.8,6.5-0.6c0.4-1.9,0.9-8.6,0.9-17
		C137.4,295.7,136.6,295,136.1,293.5z"/>
	<path fill="#333333" d="M174.1,299.1c-0.1,2.8-0.3,5.4-0.5,6.9c-0.3,5.4-0.7,9.3-1.4,10.8c-1.4,2.8-4.5,4-9.1,4
		c-3.4,0-8.6-1.2-9.1-4.5c-0.2-1-0.2-2.8-0.2-4.7c0-3,0.1-6.4,0.2-9c0.2-4.5,0.4-8.8,0.7-13.2c0.2-3.6,3.4-4.7,7.3-5
		c0.7-0.1,1.8-0.2,3.2-0.2c3.7,0,8.8,0.9,9,6.7c1,0.5,2.5,0,4.4-0.3c1.3-0.2,3.1-0.9,6.3-2.5c0.6,1.6,1,2.8,1.3,4.2
		c-1.2,1.4-3.5,2.4-5.7,3.1c-0.9,0.3-3.3,1-6.3,0.8C174.1,297.1,174.1,298.1,174.1,299.1z M164.6,293.5c-0.5-1.4-0.1-3.3,0.8-4.2
		c-3.4-0.3-4.9,1-4.9,3.1c-0.2,6.5-0.7,20.4-0.1,21.6c0.8,1.4,6,1.8,6.5-0.6c0.4-1.9,0.9-8.6,0.9-17
		C166,295.7,165.2,295,164.6,293.5z"/>
	<path fill="#333333" d="M203.3,319.8c-2.1,0.1-4.2,0.1-6.4-0.1c-0.5-7.9-0.3-14.4-0.8-24.7c-0.1-2.9-3.6-2.2-4.4-1.6
		c-1,0.4-1.9,1.3-2.8,3.4l0.2,23.2l-6.4-0.1c-0.5-10.5-0.5-23.4-0.5-35c1.1-0.1,2.3-0.1,3.5-0.1c1,0,2,0,2.9,0.1l0.2,5.3
		c1.8-2.4,4.8-5.1,8.2-5.1c0.9,0,1.7,0.2,2.6,0.6c0.8,0.3,2.4,1.9,2.9,4.5c1.4-2.1,3.4-5,7.6-4.7c2,0.1,4.8,2.7,5,4.5
		c1.1,10.6,0.8,16,0.9,22.1c0.1,3.8,4.3,1.4,9-6.4c0.9,0.7,2.1,1.9,3,3.4c-2.7,4.6-7.2,11.4-13.6,11.4c-3.7,0-4.1-1-4.3-5.4
		c-0.5-8.5,0.2-10.8-0.8-20.1c-0.3-3.5-4.5-2.4-6.2,1.3C203.4,305.3,203.3,311.9,203.3,319.8z"/>
	<path fill="#333333" d="M252.4,285c2.3,0,4.6,1.7,5,4.8c3.4,0.6,7.2-0.5,9.1-1.7c0.6,1.3,1.2,2.6,1.7,4.5
		c-2.4,2.2-6.2,3.5-10.7,3.1c0.3,9-1.7,13.5-3.5,16.8c-3.2,6-6.1,8.2-9.2,8.2c-3.7,0-5.6-2.3-6.4-6.4c-1.7,3.3-3.9,4.8-6.8,5.7
		c-0.7,0.2-1.4,0.3-2.1,0.3c-2.3,0-4.6-1.2-4.8-4.6c-0.2-2.7-0.1-6.9-0.2-9.2c-0.1-4.1-0.2-9.9-0.2-14.9c0-2.7,0-5,0.1-6.7
		c1.4,0,4.2,0.5,5.8,0.5c0.3,4.1-0.2,12.9,0,17.3c0.1,2.1,0.1,6.1,0.3,8.2c0.7,4.9,5.6-0.9,7.2-4.4c-0.1-1.6-0.8-15.9-0.9-21.1
		c1.3-0.1,3.5-0.5,5.9-0.8c0.4,4.1,0.5,11,0.8,14.1c0.1,1.7,0.5,10.4,0.8,12c0.8,4.9,4.6-0.3,5.4-2.1c1.8-3.9,3-10.5,2.5-13.2
		c-3.4-0.6-4.5-3-4.3-5.8C248.1,286.5,250.3,285,252.4,285z"/>
	<path fill="#333333" d="M284.6,299.1c-0.1,2.8-0.3,5.4-0.5,6.9c-0.3,5.4-0.7,9.3-1.4,10.8c-1.4,2.8-4.5,4-9.1,4
		c-3.4,0-8.6-1.2-9.1-4.5c-0.2-1-0.2-2.8-0.2-4.7c0-3,0.1-6.4,0.2-9c0.2-4.5,0.4-8.8,0.7-13.2c0.2-3.6,3.4-4.7,7.3-5
		c0.7-0.1,1.8-0.2,3.2-0.2c3.7,0,8.8,0.9,9,6.7c1,0.5,2.5,0,4.4-0.3c1.3-0.2,3.1-0.9,6.3-2.5c0.6,1.6,1,2.8,1.3,4.2
		c-1.2,1.4-3.5,2.4-5.7,3.1c-0.9,0.3-3.3,1-6.3,0.8C284.6,297.1,284.7,298.1,284.6,299.1z M275.2,293.5c-0.5-1.4-0.1-3.3,0.8-4.2
		c-3.4-0.3-4.9,1-4.9,3.1c-0.2,6.5-0.7,20.4-0.1,21.6c0.8,1.4,6,1.8,6.5-0.6c0.4-1.9,0.9-8.6,0.9-17
		C276.5,295.7,275.7,295,275.2,293.5z"/>
	<path fill="#333333" d="M310.9,289c1.3,0.3,3.2,0.4,5.7-0.9c0.8,1.4,1,2.8,1.4,4.3c-3,3.5-8.9,3.9-11.3,1.7
		c-2.8,2.9-4.3,9.3-5.2,13.8c-0.8,4-1.4,8.2-1.3,12.4c-1.7-0.1-3.9-0.2-6.3-0.6c-0.7-12.8-0.9-24.8-1.6-34.6l6-0.5
		c0.5,6.7,0.5,10.9,0.6,14.2c0.1,0.1,0.2,0.1,0.1,0c1.4-4.2,2.1-9.3,6.8-14.3C307.2,286.9,308.3,288.4,310.9,289z"/>
	<path fill="#333333" d="M319.8,319.9h-6.1l2.5-45.9c0.6-2.9-0.3-8.6,5-11.4c0.9-0.5,2.5-0.9,4.2-0.9c3,0,6.3,1.2,6.9,5
		c0.6,3.7-1.6,8.6-4.1,12.1c-2.3,3.2-3.9,5.4-6.4,8.5c-0.3,1.9-0.4,5.2-0.4,5.9c2.3-3.5,6.1-8.1,9.7-8.2c5.3-0.1,7.1,2.5,6.7,7.7
		c-0.3,5.2-6.1,11.4-11,12.5c2.9,4.4,5.2,8.4,6.8,8.6c2.1,0.2,5.3-1,9.7-8.5c0.8,0.9,1.7,1.7,2.5,3.2c-5,10.3-9.6,11.9-12.3,11.9
		c-1.6,0-3.9-0.8-5.2-2.1c-1.3-1.4-5.2-7.3-7.8-12.7C320.4,308.9,319.8,316.6,319.8,319.9z M322,300.4c3.5,0.5,7.2-1.6,9.3-5.3
		c1.2-2.1,0.5-4.7-1.6-3.4C326.1,293.9,323.4,298.5,322,300.4z M322.1,280.1c2-3.4,4.2-8,4.5-9.5c1.2-5-3.5-4.7-3.8-0.9
		C322.6,272.1,322.1,276,322.1,280.1z"/>
	<path fill="#333333" d="M340.9,310.5c0-2.2,0.5-5.3,2.8-6c2.5-0.8,4.3-0.3,5.4,2.1c0.8,1.7,0.2,5.6-3.4,4.8c0.2,3,2.5,3.9,4.3,3.9
		c1.6,0,5-1.3,4.2-6.7c-0.3-2.3-3.4-4.8-5.7-7c-2-1.9-4-4.2-4.6-7.4c-0.6-3-1-5,0.6-7.5c1-1.6,3.5-2.8,6.1-2.8
		c1.8,0,4.1,0.8,4.3,2.9c0.3,3.2-0.9,6.1-5.9,4.6c0,2.6,4.6,6.1,7.1,8.3c2.4,2.1,3.8,5,4.2,7.6c0.2,1.2,0.3,2.2,0.3,3.2
		c0,2.7-0.7,4.6-1.8,6c-2.3,2.7-6,3.9-8.8,3.9c-0.8,0-1.6-0.1-2.2-0.3C343.2,318.6,340.9,315.5,340.9,310.5z"/>
</g>
</svg>
