<?xml version="1.0" encoding="utf-8"?>
<!-- Generator: Adobe Illustrator 18.1.1, SVG Export Plug-In . SVG Version: 6.00 Build 0)  -->
<!DOCTYPE svg PUBLIC "-//W3C//DTD SVG 1.1//EN" "http://www.w3.org/Graphics/SVG/1.1/DTD/svg11.dtd">
<svg version="1.1" id="Layer_1" xmlns="http://www.w3.org/2000/svg" xmlns:xlink="http://www.w3.org/1999/xlink" x="0px" y="0px"
	 viewBox="0 234 1224 324" enable-background="new 0 234 1224 324" xml:space="preserve">
<g>
	<path fill="#A6A8AB" d="M4146.2,4245C4146.1,4245,4146.1,4245,4146.2,4245c-1.6,0-2.9,0.6-4,1.7s-1.6,2.4-1.6,4s0.5,2.9,1.6,4
		s2.4,1.7,4,1.7s2.9-0.6,4-1.7c1-1.2,1.6-2.5,1.6-4.1c0-1.5-0.6-2.9-1.7-4S4147.7,4245,4146.2,4245z M4149.1,4253.6
		c-0.7,0.9-1.7,1.3-2.9,1.3c-1.2,0-2.2-0.4-2.9-1.2c-0.7-0.8-1.1-1.8-1.1-3s0.4-2.2,1.2-3c0.7-0.8,1.7-1.2,2.7-1.2
		c0.1,0,0.1,0,0.1,0c1.1,0.1,2,0.4,2.7,1.2c0.8,0.7,1.2,1.7,1.2,2.9C4150.1,4251.8,4149.7,4252.8,4149.1,4253.6z"/>
	<path fill="#A6A8AB" d="M4158.8,4245L4158.8,4245c-1.5,0-2.8,0.6-3.9,1.7s-1.7,2.4-1.7,4s0.6,2.9,1.7,4s2.4,1.7,3.9,1.7h0.1
		c1.6,0,2.9-0.6,4-1.7c1-1.2,1.5-2.5,1.5-4.1c0-1.5-0.5-2.9-1.7-4C4161.6,4245.5,4160.3,4245,4158.8,4245z M4161.7,4253.6
		c-0.7,0.9-1.7,1.3-2.8,1.3h-0.1c-1.2,0-2.1-0.4-2.8-1.2c-0.7-0.8-1.1-1.8-1.1-3s0.4-2.2,1.1-3c0.8-0.8,1.7-1.2,2.7-1.2h0.1
		c1.2,0.1,2.1,0.4,2.8,1.2c0.7,0.7,1.2,1.7,1.2,2.9C4162.7,4251.8,4162.4,4252.8,4161.7,4253.6z"/>
	<path fill="#A6A8AB" d="M4177.9,4245.1c-0.7,0-1.4,0.2-2.1,0.6c-0.6,0.5-1,1.2-1.4,1.9c-0.1-0.8-0.5-1.4-1.1-1.9s-1.2-0.7-2-0.7
		c-0.7,0-1.4,0.2-1.9,0.6c-0.6,0.4-1,1-1.3,1.7h-0.1c0-1.2,0-1.7,0-1.8c0-0.2-0.2-0.4-0.5-0.4c-0.1,0-0.2,0-0.4,0
		c-0.2,0-0.4,0-0.6,0v10.9h1.7v-6.3c0-1.1,0.2-1.9,0.6-2.4c0.6-0.7,1.2-1.1,1.9-1.1c0.8,0,1.4,0.4,1.9,1c0.2,0.4,0.4,1,0.4,1.9v6.3
		h-0.7v0.6h3.7v-0.6h-1.4v-5.3c0-0.6,0-1.2,0.1-1.4c0.1-0.5,0.3-0.9,0.5-1.3c0.6-0.9,1.3-1.2,2.2-1.2c0.7,0,1.4,0.4,1.7,1.2
		c0.2,0.4,0.3,1.1,0.3,2.2v6.5h1.7v-6.5c0-1.5-0.2-2.6-0.6-3.2C4180.1,4245.6,4179.2,4245.1,4177.9,4245.1z"/>
	<path fill="#A6A8AB" d="M4193.3,4250.9c0-1.6-0.4-2.9-1.2-3.9c-0.9-1.2-2.1-1.7-3.7-1.7c-0.1,0-0.1,0-0.1,0c-1.6,0-2.8,0.5-3.7,1.6
		c-0.9,1-1.3,2.2-1.3,3.8c0,1.7,0.4,3,1.3,4c0.9,1.1,2.1,1.7,3.7,1.7c0,0,0,0,0.1,0c1,0,2-0.3,2.9-0.9s1.4-1.4,1.7-2.3l-2.6-0.1v0.5
		h0.6c-0.5,0.9-1.3,1.3-2.6,1.3h-0.1c-0.5,0-1-0.1-1.4-0.4c-0.5-0.3-0.9-0.7-1.2-1.2c-0.4-0.8-0.6-1.7-0.6-2.4h3.2H4193.3z
		 M4186.3,4247.5c0.5-0.6,1.2-0.8,2.1-0.9c0,0,0,0,0.1,0c0.9,0,1.7,0.3,2.2,0.9c0.6,0.6,0.8,1.3,0.8,2.2h-3h-3
		C4185.4,4248.8,4185.7,4248.1,4186.3,4247.5z"/>
	<path fill="#A6A8AB" d="M4197.3,4247.9c0-1.4,0-2.1,0-2.2c-0.1-0.3-0.2-0.4-0.6-0.4c-0.1,0-0.2,0-0.4,0c-0.2,0-0.4,0-0.6,0v10.5
		h-0.6v0.4h3.3v-0.4h-1v-5c0-0.4,0-0.6,0.1-0.9c0.1-0.9,0.4-1.7,1-2.3c0.6-0.6,1.4-0.9,2.3-0.9h0.3v-1.6l-0.6-0.1
		C4199.1,4245,4198,4245.9,4197.3,4247.9z"/>
	<path fill="#A6A8AB" d="M4212.5,4249.7c0-1.7-0.3-2.9-0.9-3.5c-0.6-0.7-1.8-1.1-3.4-1.1c-0.1,0-0.1,0-0.3,0c-1,0-1.9,0.2-2.7,0.6
		c-1,0.5-1.6,1.3-1.7,2.3h1.6c0.1-0.6,0.5-1.2,1.1-1.4c0.4-0.2,0.9-0.3,1.7-0.3c0.1,0,0.1,0,0.1,0c1,0,1.7,0.2,2.2,0.6
		c0.4,0.4,0.6,1.1,0.6,2.1v0.4h-1.4c-0.5,0-1,0-1.5,0.1c-1.2,0.1-2,0.3-2.7,0.6s-1.2,0.7-1.5,1.2c-0.4,0.6-0.5,1.2-0.5,1.8
		c0,1.1,0.4,1.9,1.2,2.5c0.6,0.5,1.6,0.8,2.7,0.8c0.3,0,0.6,0,0.9-0.1c1.4-0.2,2.3-0.9,3-2.2l0.1,2h1.7c-0.1-0.5-0.3-1.3-0.3-2.3
		L4212.5,4249.7L4212.5,4249.7z M4210.9,4251.5c0,1-0.4,1.8-0.9,2.5c-0.6,0.6-1.2,1-2,1.1c-0.1,0.1-0.4,0.1-0.5,0.1
		c-0.7,0-1.2-0.1-1.7-0.4c-0.5-0.4-0.7-0.9-0.7-1.5c0-1.3,0.9-2.1,2.9-2.4c0.5-0.1,1-0.1,1.5-0.1h1.4L4210.9,4251.5L4210.9,4251.5z"
		/>
	<path fill="#A6A8AB" d="M4222.8,4245.3c-0.4,0-0.5,0.1-0.6,0.4c0,0,0,0.6,0,1.7c-0.7-1.6-1.9-2.3-3.5-2.3c-1.4,0-2.4,0.5-3.1,1.7
		c-0.3,0.6-0.5,1.7-0.5,3.5v6h1.7v-6.8c0-1,0.1-1.7,0.4-2c0.4-0.6,1-0.9,1.9-0.9s1.6,0.4,2.2,1.1c0.6,0.6,0.9,1.7,0.9,3v5.7h1.7
		v-10.9c-0.1,0-0.4,0-0.6,0C4223,4245.3,4222.9,4245.3,4222.8,4245.3z"/>
	<path fill="#A6A8AB" d="M4234.4,4254.9c-0.4-0.1-0.9-0.3-1.6-0.4c-0.3,0-0.9,0-1.7-0.1c-0.2,0-0.5,0-0.7,0c-1-0.1-1.7-0.1-1.9-0.1
		c-0.5-0.1-0.8-0.4-0.8-0.9c0-0.3,0.1-0.5,0.4-0.7s0.5-0.3,0.8-0.3c-0.1,0,0.1,0,0.7,0.1c0.1,0.1,0.4,0.1,0.8,0.1
		c1.2,0,2-0.3,2.7-0.8c0.9-0.7,1.4-1.7,1.4-2.7s-0.4-1.9-1.1-2.7l-0.9-0.7c-0.6-0.3-1.4-0.4-2.2-0.4c-1.2,0-2.1,0.3-2.9,0.9
		c-0.9,0.7-1.3,1.7-1.3,2.7c0,1.2,0.5,2.2,1.4,2.9c-1,0.5-1.5,1.2-1.5,1.9c0,0.7,0.4,1.3,1,1.7c-1.1,0.4-1.7,1.2-1.7,2.2
		s0.6,1.9,1.9,2.4c0.7,0.2,1.7,0.4,3,0.4c0.1,0,0.1,0,0.2,0c3.6,0,5.4-1.1,5.4-3.2c0-0.5-0.1-1-0.5-1.4
		C4235.2,4255.3,4234.9,4255,4234.4,4254.9z M4228.7,4247.1c0.4-0.5,1-0.7,1.7-0.7s1.3,0.2,1.7,0.7c0.5,0.4,0.7,1,0.7,1.7
		s-0.2,1.4-0.6,1.8s-1.1,0.6-1.8,0.6c-0.7,0-1.3-0.2-1.8-0.6c-0.4-0.4-0.6-1-0.6-1.7S4228.2,4247.6,4228.7,4247.1z M4233.4,4258.6
		c-0.6,0.3-1.6,0.4-2.8,0.4c-0.1,0-0.1,0-0.2,0c-0.7,0-1.4-0.1-1.9-0.3c-0.9-0.3-1.4-0.8-1.4-1.4s0.4-1.2,1.2-1.5l2,0.1l0.6,0.1h1.1
		c1.6,0,2.4,0.4,2.4,1.3C4234.5,4257.9,4234.1,4258.4,4233.4,4258.6z"/>
	<path fill="#A6A8AB" d="M4258.4,4247.9L4258.4,4247.9c-0.1-1.4-0.1-2.1-0.1-2.2c-0.1-0.3-0.2-0.4-0.6-0.4c-0.1,0-0.1,0-0.4,0
		s-0.4,0-0.6,0v10.5h-0.6v0.4h3.3v-0.4h-1v-5c0-0.4,0.1-0.6,0.1-0.9c0.1-0.9,0.4-1.7,1.1-2.3c0.6-0.6,1.4-0.9,2.2-0.9h0.4v-1.6
		l-0.6-0.1C4260.2,4245,4259.1,4245.9,4258.4,4247.9z"/>
	<path fill="#A6A8AB" d="M4273.8,4250.9c0.1-1.6-0.3-2.9-1.1-3.9c-0.9-1.2-2.1-1.7-3.7-1.7s-2.8,0.5-3.7,1.6c-0.9,1-1.3,2.2-1.3,3.8
		c0,1.7,0.4,3,1.2,4c0.9,1.1,2.2,1.7,3.7,1.7c1.1,0,2-0.3,2.9-0.9s1.4-1.4,1.8-2.3l-2.6-0.1v0.5h0.6c-0.5,0.9-1.4,1.3-2.6,1.3
		c-0.1,0-0.1,0-0.1,0c-0.5,0-1-0.1-1.5-0.4s-0.9-0.7-1.2-1.2c-0.4-0.8-0.6-1.7-0.6-2.4h3.3H4273.8z M4266.8,4247.5
		c0.6-0.6,1.3-0.8,2.2-0.9c0.9,0,1.7,0.3,2.2,0.9s0.8,1.3,0.7,2.2h-3h-3C4265.9,4248.8,4266.2,4248.1,4266.8,4247.5z"/>
	<path fill="#A6A8AB" d="M4283.6,4250.7c-0.4-0.3-1.2-0.6-2.2-0.7l-1.7-0.3c-0.8-0.1-1.3-0.3-1.4-0.3c-0.5-0.2-0.7-0.6-0.7-1.1
		s0.3-0.9,0.8-1.2c0.4-0.2,0.9-0.4,1.5-0.4c1.4,0,2.3,0.5,2.7,1.4l1.7-0.1c-0.4-1.8-1.9-2.7-4.3-2.7c-1.1,0-2,0.3-2.7,0.8
		c-0.9,0.6-1.3,1.4-1.3,2.4c0,0.9,0.4,1.5,1,1.9c0.5,0.4,1.3,0.6,2.4,0.8l1.7,0.4c1.4,0.2,2.2,0.8,2.2,1.7c0,0.6-0.3,1.1-0.9,1.4
		c-0.5,0.3-1.1,0.4-1.8,0.4c-1.9,0-3-0.6-3.2-1.7h-1.7c0.2,1,0.9,1.8,1.8,2.4c0.8,0.5,1.8,0.7,3,0.7s2.3-0.2,3.1-0.7
		c1-0.6,1.4-1.5,1.4-2.7C4284.9,4252.1,4284.5,4251.2,4283.6,4250.7z"/>
	<path fill="#A6A8AB" d="M4294.9,4250.7c-0.5-0.3-1.3-0.6-2.3-0.7l-1.6-0.3c-0.9-0.1-1.4-0.3-1.4-0.3c-0.5-0.2-0.7-0.6-0.7-1.1
		s0.3-0.9,0.8-1.2c0.4-0.2,0.9-0.4,1.5-0.4c1.4,0,2.3,0.5,2.7,1.4l1.7-0.1c-0.5-1.8-1.9-2.7-4.3-2.7c-1.2,0-2.1,0.3-2.8,0.8
		c-0.9,0.6-1.3,1.4-1.3,2.4c0,0.9,0.4,1.5,1.1,1.9c0.5,0.4,1.2,0.6,2.3,0.8l1.8,0.4c1.4,0.2,2.1,0.8,2.1,1.7c0,0.6-0.3,1.1-0.9,1.4
		c-0.5,0.3-1.1,0.4-1.7,0.4c-2,0-3-0.6-3.2-1.7h-1.7c0.3,1,0.9,1.8,1.8,2.4c0.9,0.5,1.9,0.7,3,0.7c1.2,0,2.2-0.2,3-0.7
		c1-0.6,1.5-1.5,1.5-2.7C4296.2,4252.1,4295.7,4251.2,4294.9,4250.7z"/>
	<path fill="#A6A8AB" d="M4134.5,4245.1c-0.1,0-0.2,0-0.4,0c-1.2,0.1-2.2,0.8-2.8,2.1h-0.1v-0.1v-6.5v-1.4h0.7v-0.6h-3.7v0.6h1.4
		v1.8v15.3h0.8l0.6-1.9c0.7,1.4,1.8,2,3.2,2.1c0.1,0,0.1,0,0.1,0c1.5,0,2.7-0.6,3.5-1.9c0.7-1.1,1.1-2.4,1.1-4
		c0-1.5-0.4-2.7-1.1-3.8C4137,4245.7,4136,4245.1,4134.5,4245.1z M4136.5,4253.7c-0.5,0.9-1.2,1.4-2.2,1.4c-0.1,0-0.1,0-0.1,0
		c-1,0-1.8-0.4-2.3-1.2c-0.4-0.6-0.6-1.4-0.6-2.2v-1.9c0-0.9,0.3-1.6,0.9-2.3c0.6-0.7,1.3-1,2.1-1.1c0,0,0,0,0.1,0
		c1,0,1.8,0.6,2.3,1.6c0.4,0.8,0.6,1.8,0.6,3C4137.1,4252,4136.9,4253,4136.5,4253.7z"/>
	<path fill="#A6A8AB" d="M4250.1,4245c-0.1,0-0.1,0-0.2,0c-1.4,0.1-2.4,0.7-3.2,2.1l-0.6-1.9h-0.8v15.3v1.9l-1.4-0.1v0.6h3.7v-0.6
		l-0.7,0.1v-1.4v-6.4v-0.1h0.1c0.6,1.2,1.6,1.9,2.8,2c0.1,0,0.2,0,0.4,0c1.4,0,2.5-0.6,3.4-1.7c0.6-1,1-2.3,1-3.8
		c0-1.6-0.4-2.9-1.1-4C4252.7,4245.7,4251.5,4245,4250.1,4245z M4252.2,4253.5c-0.5,1-1.3,1.6-2.3,1.6c-0.1,0-0.1,0-0.1,0
		c-0.8-0.1-1.5-0.4-2.1-1.1c-0.6-0.6-0.9-1.4-0.9-2.3v-1.9c0-0.8,0.2-1.5,0.6-2.2c0.5-0.8,1.3-1.2,2.3-1.2c0,0,0,0,0.1,0
		c1,0,1.7,0.4,2.2,1.4c0.4,0.8,0.6,1.7,0.6,2.8C4252.8,4251.7,4252.6,4252.7,4252.2,4253.5z"/>
</g>
<path fill="#FEC057" d="M4207.7,4227.5c-1.2,0.4-2.2,1-3.2,1.7l-3.5-4c0.9-0.7,1.9-1.4,2.9-2.1L4207.7,4227.5z"/>
<path fill="#007AC2" d="M4203.9,4229.6c-0.9,0.6-1.8,1.4-2.7,2.2l-3.4-3.9c0.8-0.7,1.7-1.5,2.7-2.3L4203.9,4229.6z"/>
<path fill="#EF3E42" d="M4200.5,4232.4c-0.6,0.6-1.3,1.2-1.9,1.9c-0.1,0.1-0.4,0.4-0.6,0.6l-3.5-4c0.1-0.1,0.3-0.3,0.5-0.4
	c0.6-0.6,1.3-1.3,2.1-2L4200.5,4232.4z"/>
<path fill="#A6A8AB" d="M4214.4,4220.6c4.2,0.9,18.1,12.7,18.7,15.6c0.4,2-1.6,3.5-3.1,2.7c-3.3-1.9-11.2-13-19.9-11.9
	c-0.5,0.1-1,0.2-1.5,0.4l-4-4.7c0.9-0.5,1.7-0.9,2.5-1.3C4210.1,4220,4212.1,4220.1,4214.4,4220.6L4214.4,4220.6z M4197.4,4235.5
	c-0.6,0.6-1.3,1.2-1.8,1.6c-3.3,2.7-5.9-0.1-4-2.8c0.6-0.8,1.4-1.7,2.3-2.7L4197.4,4235.5z"/>
<g>
	<path fill="#A6A8AB" d="M4146.2,4245C4146.1,4245,4146.1,4245,4146.2,4245c-1.6,0-2.9,0.6-4,1.7s-1.6,2.4-1.6,4s0.5,2.9,1.6,4
		s2.4,1.7,4,1.7s2.9-0.6,4-1.7c1-1.2,1.6-2.5,1.6-4.1c0-1.5-0.6-2.9-1.7-4S4147.7,4245,4146.2,4245z M4149.1,4253.6
		c-0.7,0.9-1.7,1.3-2.9,1.3c-1.2,0-2.2-0.4-2.9-1.2c-0.7-0.8-1.1-1.8-1.1-3s0.4-2.2,1.2-3c0.7-0.8,1.7-1.2,2.7-1.2
		c0.1,0,0.1,0,0.1,0c1.1,0.1,2,0.4,2.7,1.2c0.8,0.7,1.2,1.7,1.2,2.9C4150.1,4251.8,4149.7,4252.8,4149.1,4253.6z"/>
	<path fill="#A6A8AB" d="M4158.8,4245L4158.8,4245c-1.5,0-2.8,0.6-3.9,1.7s-1.7,2.4-1.7,4s0.6,2.9,1.7,4s2.4,1.7,3.9,1.7h0.1
		c1.6,0,2.9-0.6,4-1.7c1-1.2,1.5-2.5,1.5-4.1c0-1.5-0.5-2.9-1.7-4C4161.6,4245.5,4160.3,4245,4158.8,4245z M4161.7,4253.6
		c-0.7,0.9-1.7,1.3-2.8,1.3h-0.1c-1.2,0-2.1-0.4-2.8-1.2c-0.7-0.8-1.1-1.8-1.1-3s0.4-2.2,1.1-3c0.8-0.8,1.7-1.2,2.7-1.2h0.1
		c1.2,0.1,2.1,0.4,2.8,1.2c0.7,0.7,1.2,1.7,1.2,2.9C4162.7,4251.8,4162.4,4252.8,4161.7,4253.6z"/>
	<path fill="#A6A8AB" d="M4177.9,4245.1c-0.7,0-1.4,0.2-2.1,0.6c-0.6,0.5-1,1.2-1.4,1.9c-0.1-0.8-0.5-1.4-1.1-1.9s-1.2-0.7-2-0.7
		c-0.7,0-1.4,0.2-1.9,0.6c-0.6,0.4-1,1-1.3,1.7h-0.1c0-1.2,0-1.7,0-1.8c0-0.2-0.2-0.4-0.5-0.4c-0.1,0-0.2,0-0.4,0
		c-0.2,0-0.4,0-0.6,0v10.9h1.7v-6.3c0-1.1,0.2-1.9,0.6-2.4c0.6-0.7,1.2-1.1,1.9-1.1c0.8,0,1.4,0.4,1.9,1c0.2,0.4,0.4,1,0.4,1.9v6.3
		h-0.7v0.6h3.7v-0.6h-1.4v-5.3c0-0.6,0-1.2,0.1-1.4c0.1-0.5,0.3-0.9,0.5-1.3c0.6-0.9,1.3-1.2,2.2-1.2c0.7,0,1.4,0.4,1.7,1.2
		c0.2,0.4,0.3,1.1,0.3,2.2v6.5h1.7v-6.5c0-1.5-0.2-2.6-0.6-3.2C4180.1,4245.6,4179.2,4245.1,4177.9,4245.1z"/>
	<path fill="#A6A8AB" d="M4193.3,4250.9c0-1.6-0.4-2.9-1.2-3.9c-0.9-1.2-2.1-1.7-3.7-1.7c-0.1,0-0.1,0-0.1,0c-1.6,0-2.8,0.5-3.7,1.6
		c-0.9,1-1.3,2.2-1.3,3.8c0,1.7,0.4,3,1.3,4c0.9,1.1,2.1,1.7,3.7,1.7c0,0,0,0,0.1,0c1,0,2-0.3,2.9-0.9s1.4-1.4,1.7-2.3l-2.6-0.1v0.5
		h0.6c-0.5,0.9-1.3,1.3-2.6,1.3h-0.1c-0.5,0-1-0.1-1.4-0.4c-0.5-0.3-0.9-0.7-1.2-1.2c-0.4-0.8-0.6-1.7-0.6-2.4h3.2H4193.3z
		 M4186.3,4247.5c0.5-0.6,1.2-0.8,2.1-0.9c0,0,0,0,0.1,0c0.9,0,1.7,0.3,2.2,0.9c0.6,0.6,0.8,1.3,0.8,2.2h-3h-3
		C4185.4,4248.8,4185.7,4248.1,4186.3,4247.5z"/>
	<path fill="#A6A8AB" d="M4197.3,4247.9c0-1.4,0-2.1,0-2.2c-0.1-0.3-0.2-0.4-0.6-0.4c-0.1,0-0.2,0-0.4,0c-0.2,0-0.4,0-0.6,0v10.5
		h-0.6v0.4h3.3v-0.4h-1v-5c0-0.4,0-0.6,0.1-0.9c0.1-0.9,0.4-1.7,1-2.3c0.6-0.6,1.4-0.9,2.3-0.9h0.3v-1.6l-0.6-0.1
		C4199.1,4245,4198,4245.9,4197.3,4247.9z"/>
	<path fill="#A6A8AB" d="M4212.5,4249.7c0-1.7-0.3-2.9-0.9-3.5c-0.6-0.7-1.8-1.1-3.4-1.1c-0.1,0-0.1,0-0.3,0c-1,0-1.9,0.2-2.7,0.6
		c-1,0.5-1.6,1.3-1.7,2.3h1.6c0.1-0.6,0.5-1.2,1.1-1.4c0.4-0.2,0.9-0.3,1.7-0.3c0.1,0,0.1,0,0.1,0c1,0,1.7,0.2,2.2,0.6
		c0.4,0.4,0.6,1.1,0.6,2.1v0.4h-1.4c-0.5,0-1,0-1.5,0.1c-1.2,0.1-2,0.3-2.7,0.6s-1.2,0.7-1.5,1.2c-0.4,0.6-0.5,1.2-0.5,1.8
		c0,1.1,0.4,1.9,1.2,2.5c0.6,0.5,1.6,0.8,2.7,0.8c0.3,0,0.6,0,0.9-0.1c1.4-0.2,2.3-0.9,3-2.2l0.1,2h1.7c-0.1-0.5-0.3-1.3-0.3-2.3
		L4212.5,4249.7L4212.5,4249.7z M4210.9,4251.5c0,1-0.4,1.8-0.9,2.5c-0.6,0.6-1.2,1-2,1.1c-0.1,0.1-0.4,0.1-0.5,0.1
		c-0.7,0-1.2-0.1-1.7-0.4c-0.5-0.4-0.7-0.9-0.7-1.5c0-1.3,0.9-2.1,2.9-2.4c0.5-0.1,1-0.1,1.5-0.1h1.4L4210.9,4251.5L4210.9,4251.5z"
		/>
	<path fill="#A6A8AB" d="M4222.8,4245.3c-0.4,0-0.5,0.1-0.6,0.4c0,0,0,0.6,0,1.7c-0.7-1.6-1.9-2.3-3.5-2.3c-1.4,0-2.4,0.5-3.1,1.7
		c-0.3,0.6-0.5,1.7-0.5,3.5v6h1.7v-6.8c0-1,0.1-1.7,0.4-2c0.4-0.6,1-0.9,1.9-0.9s1.6,0.4,2.2,1.1c0.6,0.6,0.9,1.7,0.9,3v5.7h1.7
		v-10.9c-0.1,0-0.4,0-0.6,0C4223,4245.3,4222.9,4245.3,4222.8,4245.3z"/>
	<path fill="#A6A8AB" d="M4234.4,4254.9c-0.4-0.1-0.9-0.3-1.6-0.4c-0.3,0-0.9,0-1.7-0.1c-0.2,0-0.5,0-0.7,0c-1-0.1-1.7-0.1-1.9-0.1
		c-0.5-0.1-0.8-0.4-0.8-0.9c0-0.3,0.1-0.5,0.4-0.7s0.5-0.3,0.8-0.3c-0.1,0,0.1,0,0.7,0.1c0.1,0.1,0.4,0.1,0.8,0.1
		c1.2,0,2-0.3,2.7-0.8c0.9-0.7,1.4-1.7,1.4-2.7s-0.4-1.9-1.1-2.7l-0.9-0.7c-0.6-0.3-1.4-0.4-2.2-0.4c-1.2,0-2.1,0.3-2.9,0.9
		c-0.9,0.7-1.3,1.7-1.3,2.7c0,1.2,0.5,2.2,1.4,2.9c-1,0.5-1.5,1.2-1.5,1.9c0,0.7,0.4,1.3,1,1.7c-1.1,0.4-1.7,1.2-1.7,2.2
		s0.6,1.9,1.9,2.4c0.7,0.2,1.7,0.4,3,0.4c0.1,0,0.1,0,0.2,0c3.6,0,5.4-1.1,5.4-3.2c0-0.5-0.1-1-0.5-1.4
		C4235.2,4255.3,4234.9,4255,4234.4,4254.9z M4228.7,4247.1c0.4-0.5,1-0.7,1.7-0.7s1.3,0.2,1.7,0.7c0.5,0.4,0.7,1,0.7,1.7
		s-0.2,1.4-0.6,1.8s-1.1,0.6-1.8,0.6c-0.7,0-1.3-0.2-1.8-0.6c-0.4-0.4-0.6-1-0.6-1.7S4228.2,4247.6,4228.7,4247.1z M4233.4,4258.6
		c-0.6,0.3-1.6,0.4-2.8,0.4c-0.1,0-0.1,0-0.2,0c-0.7,0-1.4-0.1-1.9-0.3c-0.9-0.3-1.4-0.8-1.4-1.4s0.4-1.2,1.2-1.5l2,0.1l0.6,0.1h1.1
		c1.6,0,2.4,0.4,2.4,1.3C4234.5,4257.9,4234.1,4258.4,4233.4,4258.6z"/>
	<path fill="#A6A8AB" d="M4258.4,4247.9L4258.4,4247.9c-0.1-1.4-0.1-2.1-0.1-2.2c-0.1-0.3-0.2-0.4-0.6-0.4c-0.1,0-0.1,0-0.4,0
		s-0.4,0-0.6,0v10.5h-0.6v0.4h3.3v-0.4h-1v-5c0-0.4,0.1-0.6,0.1-0.9c0.1-0.9,0.4-1.7,1.1-2.3c0.6-0.6,1.4-0.9,2.2-0.9h0.4v-1.6
		l-0.6-0.1C4260.2,4245,4259.1,4245.9,4258.4,4247.9z"/>
	<path fill="#A6A8AB" d="M4273.8,4250.9c0.1-1.6-0.3-2.9-1.1-3.9c-0.9-1.2-2.1-1.7-3.7-1.7s-2.8,0.5-3.7,1.6c-0.9,1-1.3,2.2-1.3,3.8
		c0,1.7,0.4,3,1.2,4c0.9,1.1,2.2,1.7,3.7,1.7c1.1,0,2-0.3,2.9-0.9s1.4-1.4,1.8-2.3l-2.6-0.1v0.5h0.6c-0.5,0.9-1.4,1.3-2.6,1.3
		c-0.1,0-0.1,0-0.1,0c-0.5,0-1-0.1-1.5-0.4s-0.9-0.7-1.2-1.2c-0.4-0.8-0.6-1.7-0.6-2.4h3.3H4273.8z M4266.8,4247.5
		c0.6-0.6,1.3-0.8,2.2-0.9c0.9,0,1.7,0.3,2.2,0.9s0.8,1.3,0.7,2.2h-3h-3C4265.9,4248.8,4266.2,4248.1,4266.8,4247.5z"/>
	<path fill="#A6A8AB" d="M4283.6,4250.7c-0.4-0.3-1.2-0.6-2.2-0.7l-1.7-0.3c-0.8-0.1-1.3-0.3-1.4-0.3c-0.5-0.2-0.7-0.6-0.7-1.1
		s0.3-0.9,0.8-1.2c0.4-0.2,0.9-0.4,1.5-0.4c1.4,0,2.3,0.5,2.7,1.4l1.7-0.1c-0.4-1.8-1.9-2.7-4.3-2.7c-1.1,0-2,0.3-2.7,0.8
		c-0.9,0.6-1.3,1.4-1.3,2.4c0,0.9,0.4,1.5,1,1.9c0.5,0.4,1.3,0.6,2.4,0.8l1.7,0.4c1.4,0.2,2.2,0.8,2.2,1.7c0,0.6-0.3,1.1-0.9,1.4
		c-0.5,0.3-1.1,0.4-1.8,0.4c-1.9,0-3-0.6-3.2-1.7h-1.7c0.2,1,0.9,1.8,1.8,2.4c0.8,0.5,1.8,0.7,3,0.7s2.3-0.2,3.1-0.7
		c1-0.6,1.4-1.5,1.4-2.7C4284.9,4252.1,4284.5,4251.2,4283.6,4250.7z"/>
	<path fill="#A6A8AB" d="M4294.9,4250.7c-0.5-0.3-1.3-0.6-2.3-0.7l-1.6-0.3c-0.9-0.1-1.4-0.3-1.4-0.3c-0.5-0.2-0.7-0.6-0.7-1.1
		s0.3-0.9,0.8-1.2c0.4-0.2,0.9-0.4,1.5-0.4c1.4,0,2.3,0.5,2.7,1.4l1.7-0.1c-0.5-1.8-1.9-2.7-4.3-2.7c-1.2,0-2.1,0.3-2.8,0.8
		c-0.9,0.6-1.3,1.4-1.3,2.4c0,0.9,0.4,1.5,1.1,1.9c0.5,0.4,1.2,0.6,2.3,0.8l1.8,0.4c1.4,0.2,2.1,0.8,2.1,1.7c0,0.6-0.3,1.1-0.9,1.4
		c-0.5,0.3-1.1,0.4-1.7,0.4c-2,0-3-0.6-3.2-1.7h-1.7c0.3,1,0.9,1.8,1.8,2.4c0.9,0.5,1.9,0.7,3,0.7c1.2,0,2.2-0.2,3-0.7
		c1-0.6,1.5-1.5,1.5-2.7C4296.2,4252.1,4295.7,4251.2,4294.9,4250.7z"/>
	<path fill="#A6A8AB" d="M4134.5,4245.1c-0.1,0-0.2,0-0.4,0c-1.2,0.1-2.2,0.8-2.8,2.1h-0.1v-0.1v-6.5v-1.4h0.7v-0.6h-3.7v0.6h1.4
		v1.8v15.3h0.8l0.6-1.9c0.7,1.4,1.8,2,3.2,2.1c0.1,0,0.1,0,0.1,0c1.5,0,2.7-0.6,3.5-1.9c0.7-1.1,1.1-2.4,1.1-4
		c0-1.5-0.4-2.7-1.1-3.8C4137,4245.7,4136,4245.1,4134.5,4245.1z M4136.5,4253.7c-0.5,0.9-1.2,1.4-2.2,1.4c-0.1,0-0.1,0-0.1,0
		c-1,0-1.8-0.4-2.3-1.2c-0.4-0.6-0.6-1.4-0.6-2.2v-1.9c0-0.9,0.3-1.6,0.9-2.3c0.6-0.7,1.3-1,2.1-1.1c0,0,0,0,0.1,0
		c1,0,1.8,0.6,2.3,1.6c0.4,0.8,0.6,1.8,0.6,3C4137.1,4252,4136.9,4253,4136.5,4253.7z"/>
	<path fill="#A6A8AB" d="M4250.1,4245c-0.1,0-0.1,0-0.2,0c-1.4,0.1-2.4,0.7-3.2,2.1l-0.6-1.9h-0.8v15.3v1.9l-1.4-0.1v0.6h3.7v-0.6
		l-0.7,0.1v-1.4v-6.4v-0.1h0.1c0.6,1.2,1.6,1.9,2.8,2c0.1,0,0.2,0,0.4,0c1.4,0,2.5-0.6,3.4-1.7c0.6-1,1-2.3,1-3.8
		c0-1.6-0.4-2.9-1.1-4C4252.7,4245.7,4251.5,4245,4250.1,4245z M4252.2,4253.5c-0.5,1-1.3,1.6-2.3,1.6c-0.1,0-0.1,0-0.1,0
		c-0.8-0.1-1.5-0.4-2.1-1.1c-0.6-0.6-0.9-1.4-0.9-2.3v-1.9c0-0.8,0.2-1.5,0.6-2.2c0.5-0.8,1.3-1.2,2.3-1.2c0,0,0,0,0.1,0
		c1,0,1.7,0.4,2.2,1.4c0.4,0.8,0.6,1.7,0.6,2.8C4252.8,4251.7,4252.6,4252.7,4252.2,4253.5z"/>
</g>
<path fill="#FEC057" d="M4207.7,4227.5c-1.2,0.4-2.2,1-3.2,1.7l-3.5-4c0.9-0.7,1.9-1.4,2.9-2.1L4207.7,4227.5z"/>
<path fill="#007AC2" d="M4203.9,4229.6c-0.9,0.6-1.8,1.4-2.7,2.2l-3.4-3.9c0.8-0.7,1.7-1.5,2.7-2.3L4203.9,4229.6z"/>
<path fill="#EF3E42" d="M4200.5,4232.4c-0.6,0.6-1.3,1.2-1.9,1.9c-0.1,0.1-0.4,0.4-0.6,0.6l-3.5-4c0.1-0.1,0.3-0.3,0.5-0.4
	c0.6-0.6,1.3-1.3,2.1-2L4200.5,4232.4z"/>
<path fill="#A6A8AB" d="M4214.4,4220.6c4.2,0.9,18.1,12.7,18.7,15.6c0.4,2-1.6,3.5-3.1,2.7c-3.3-1.9-11.2-13-19.9-11.9
	c-0.5,0.1-1,0.2-1.5,0.4l-4-4.7c0.9-0.5,1.7-0.9,2.5-1.3C4210.1,4220,4212.1,4220.1,4214.4,4220.6L4214.4,4220.6z M4197.4,4235.5
	c-0.6,0.6-1.3,1.2-1.8,1.6c-3.3,2.7-5.9-0.1-4-2.8c0.6-0.8,1.4-1.7,2.3-2.7L4197.4,4235.5z"/>
<g>
	<path fill="#A6A8AB" d="M131.1,420.4c-0.5,0-0.5,0-0.5,0c-11,0-20.4,4.2-28.3,12.6c-7.9,7.9-11.5,17.8-11.5,29.3s3.7,21,11.5,29.3
		c7.9,7.9,17.3,12,28.8,12s21-4.2,28.8-12.6c7.3-8.4,11.5-18.3,11.5-29.9c0-11-4.2-21-12-28.8S142.1,420.9,131.1,420.4z
		 M152.1,483.2c-5.2,6.3-12.6,9.4-21,9.4c-8.9,0-15.7-3.1-21-8.9c-5.2-5.8-7.9-13.1-7.9-21.5s2.6-15.7,8.4-22
		c5.2-5.8,12-8.9,19.4-8.9c0.5,0,0.5,0,1,0c7.9,0.5,14.7,3.1,19.9,8.9c5.8,5.2,8.4,12.6,8.4,21C159.4,470.1,156.8,477.4,152.1,483.2
		z"/>
	<path fill="#A6A8AB" d="M222.8,420.4c0,0,0,0-0.5,0c-10.5,0-19.9,4.2-27.8,12.6c-7.9,7.9-12,17.8-12,29.3s4.2,21,12,29.3
		c7.9,7.9,17.3,12,28.3,12h0.5c11.5,0,21-4.2,28.8-12.6c7.3-8.4,11-18.3,11-29.9c0-11-3.7-21-12-28.8
		C243.2,424.5,233.8,420.9,222.8,420.4z M243.7,483.2c-5.2,6.3-12,9.4-20.4,9.4h-0.5c-8.4,0-15.2-3.1-20.4-8.9s-7.9-13.1-7.9-21.5
		s2.6-15.7,7.9-22c5.8-5.8,12-8.9,19.9-8.9h0.5c8.4,0.5,15.2,3.1,20.4,8.9c5.2,5.2,8.4,12.6,8.4,21
		C251.6,470.1,249,477.4,243.7,483.2z"/>
	<path fill="#A6A8AB" d="M362.1,421.4c-5.2,0-10.5,1.6-15.2,4.7c-4.2,3.7-7.3,8.4-10,14.1c-1-5.8-3.7-10.5-7.9-13.6
		c-4.2-3.7-8.9-5.2-14.7-5.2c-5.2,0-10,1.6-14.1,4.7c-4.2,3.1-7.3,7.3-9.4,12.6h-0.5c0-8.4,0-12.6,0-13.1c0-1.6-1.6-2.6-3.7-2.6
		c-0.5,0-1.6,0-3.1,0c-1.6,0-3.1,0-4.2,0v79.6h12.6V457c0-7.9,1.6-13.6,4.7-17.8c4.2-5.2,8.9-7.9,14.1-7.9c5.8,0,10.5,2.6,13.6,7.3
		c1.6,3.1,2.6,7.3,2.6,13.6v46.1h-5.2v4.2H349v-4.2h-10v-38.8c0-4.7,0-8.4,0.5-10c0.5-3.7,2.1-6.8,3.7-9.4c4.2-6.3,9.4-8.9,15.7-8.9
		c5.2,0,10,2.6,12.6,8.4c1.6,2.6,2.1,7.9,2.1,15.7v47.1h12.6v-47.1c0-11-1.6-18.9-4.2-23C377.8,425.1,371,421.4,362.1,421.4z"/>
	<path fill="#A6A8AB" d="M473.7,463.8c0-11.5-2.6-21-8.4-28.3c-6.3-8.4-15.2-12-26.7-12c-0.5,0-0.5,0-0.5,0
		c-11.5,0-20.4,3.7-26.7,11.5c-6.3,7.3-9.4,16.2-9.4,27.8c0,12,3.1,21.5,9.4,29.3c6.3,7.9,15.2,12,26.7,12c0,0,0,0,0.5,0
		c7.3,0,14.7-2.1,21-6.3c6.3-4.2,10.5-10,12.6-16.8l-18.9-0.5v3.7h4.7c-3.7,6.3-9.4,9.4-18.9,9.4c0,0-0.5,0-1,0
		c-3.7,0-7.3-1-10.5-3.1c-3.7-2.1-6.8-5.2-8.4-8.9c-3.1-5.8-4.7-12-4.7-17.8h23.6L473.7,463.8L473.7,463.8z M422.9,438.7
		c3.7-4.2,8.9-5.8,15.2-6.3c0,0,0,0,0.5,0c6.8,0,12,2.1,15.7,6.3c4.2,4.2,5.8,9.4,5.8,16.2h-22h-21.5
		C416.6,448.1,418.7,442.9,422.9,438.7z"/>
	<path fill="#A6A8AB" d="M503,441.8c0-10,0-15.2,0-15.7c-0.5-2.1-1.6-3.1-4.2-3.1c-0.5,0-1.6,0-2.6,0c-1.6,0-3.1,0-4.2,0v76.5h-4.7
		v3.1h24.1v-3.1h-7.3v-36.7c0-2.6,0-4.7,0.5-6.3c0.5-6.3,3.1-12,7.3-16.8c4.7-4.2,10-6.8,16.8-6.8h2.1v-11.5l-4.2-0.5
		C516.1,420.4,508.2,427.2,503,441.8z"/>
	<path fill="#A6A8AB" d="M613.5,454.9c0-12-2.1-21-6.3-25.7c-4.7-5.2-13.1-7.9-24.6-7.9c-0.5,0-1,0-2.1,0c-7.3,0-14.1,1.6-19.4,4.7
		c-7.3,3.7-11.5,9.4-12.6,16.8H560c1-4.7,3.7-8.4,7.9-10c2.6-1.6,6.8-2.1,12.6-2.1c0.5,0,1,0,1,0c7.3,0,12.6,1.6,15.7,4.2
		c3.1,3.1,4.7,7.9,4.7,15.2v3.1h-10.5c-3.7,0-7.3,0-11,0.5c-8.4,0.5-14.7,2.1-19.4,4.2s-8.4,5.2-11,8.9c-2.6,4.2-3.7,8.4-3.7,13.1
		c0,7.9,2.6,13.6,8.4,18.3c4.7,3.7,11.5,5.8,19.4,5.8c2.1,0,4.2,0,6.3-0.5c10-1.6,16.8-6.8,21.5-15.7l1,14.7h12.6
		c-1-3.7-2.1-9.4-2.1-16.8L613.5,454.9L613.5,454.9z M602,468c0,7.3-2.6,13.1-6.8,18.3c-4.2,4.7-8.9,7.3-14.7,7.9
		c-1,0.5-2.6,0.5-3.7,0.5c-5.2,0-8.9-1-12-3.1c-3.7-2.6-5.2-6.3-5.2-11c0-9.4,6.8-15.2,21-17.3c3.7-0.5,7.3-0.5,11-0.5H602V468z"/>
	<path fill="#A6A8AB" d="M688.4,423c-2.6,0-3.7,1-4.2,2.6c0,0,0,4.2,0,12.6c-5.2-11.5-13.6-16.8-25.1-16.8c-10,0-17.3,3.7-22.5,12
		c-2.1,4.2-3.7,12.6-3.7,25.1v44h12v-49.2c0-7.3,1-12,2.6-14.7c2.6-4.7,7.3-6.8,13.6-6.8s11.5,2.6,16.2,7.9c4.2,4.7,6.3,12,6.3,21.5
		v41.4h12V423c-1,0-2.6,0-4.2,0C690,423,688.9,423,688.4,423z"/>
	<path fill="#A6A8AB" d="M772.8,492.6c-3.1-1-6.8-2.1-11.5-2.6c-2.1,0-6.3,0-12-0.5c-1.6,0-3.7,0-5.2,0c-7.3-0.5-12-1-13.6-1
		c-3.7-1-5.8-3.1-5.8-6.8c0-2.1,1-3.7,2.6-5.2c2.1-1.6,3.7-2.1,5.8-2.1c-0.5,0,1,0,5.2,0.5c1,0.5,3.1,0.5,5.8,0.5
		c8.4,0,14.7-2.1,19.9-5.8c6.8-5.2,10.5-12,10.5-19.9c0-7.3-2.6-14.1-7.9-19.9l-6.3-5.2c-4.7-2.1-10.5-3.1-16.2-3.1
		c-8.4,0-15.2,2.1-21,6.8c-6.3,5.2-9.4,12-9.4,19.9c0,8.9,3.7,15.7,10.5,21c-7.3,3.7-11,8.4-11,14.1c0,5.2,2.6,9.4,7.3,12.6
		c-7.9,3.1-12,8.4-12,16.2c0,7.9,4.7,14.1,13.6,17.8c5.2,1.6,12.6,2.6,22,3.1c0.5,0,1,0,1.6,0c26.2,0,39.3-7.9,39.3-23
		c0-3.7-1-7.3-3.7-10.5C779,495.8,776.4,493.7,772.8,492.6z M731.4,436.1c3.1-3.7,7.3-5.2,12.6-5.2c5.2,0,9.4,1.6,12.6,5.2
		c3.7,3.1,5.2,7.3,5.2,12c0,5.2-1.6,10-4.7,13.1c-3.1,3.1-7.9,4.7-13.1,4.7c-5.2,0-9.4-1.6-13.1-4.7c-3.1-3.1-4.7-7.3-4.7-12.6
		C726.1,443.4,727.7,439.2,731.4,436.1z M765.9,519.9c-4.7,2.1-11.5,3.1-20.4,3.1c-0.5,0-1,0-1.6,0c-5.2,0-10-0.5-13.6-2.1
		c-6.3-2.1-10-5.8-10-10.5s3.1-8.4,8.9-11l14.7,1l4.2,0.5h7.9c11.5,0,17.3,3.1,17.3,9.4C773.3,514.6,770.7,517.8,765.9,519.9z"/>
	<path fill="#A6A8AB" d="M947.7,441.8h-0.5c0-10,0-15.2,0-15.7c-0.5-2.1-1.6-3.1-4.2-3.1c-0.5,0-1,0-2.6,0s-3.1,0-4.2,0v76.5h-4.7
		v3.1h24.1v-3.1h-7.3v-36.7c0-2.6,0.5-4.7,0.5-6.3c0.5-6.3,3.1-12,7.9-16.8c4.2-4.2,10-6.8,16.2-6.8h2.6v-11.5l-4.7-0.5
		C960.3,420.4,952.4,427.2,947.7,441.8z"/>
	<path fill="#A6A8AB" d="M1059.3,463.8c0.5-11.5-2.1-21-7.9-28.3c-6.3-8.4-15.2-12-27.2-12c-11.5,0-20.4,3.7-26.7,11.5
		c-6.3,7.3-9.4,16.2-9.4,27.8c0,12,2.6,21.5,8.9,29.3c6.8,7.9,15.7,12,27.2,12c7.9,0,14.7-2.1,21-6.3c6.3-4.2,10.5-10,13.1-16.8
		l-18.9-0.5v3.7h4.7c-3.7,6.3-10,9.4-18.9,9.4c-0.5,0-1,0-1,0c-3.7,0-7.3-1-11-3.1s-6.3-5.2-8.4-8.9c-3.1-5.8-4.7-12-4.7-17.8h24.1
		L1059.3,463.8L1059.3,463.8z M1008.5,438.7c4.2-4.2,9.4-5.8,15.7-6.3c6.8,0,12.6,2.1,16.2,6.3c3.7,4.2,5.8,9.4,5.2,16.2h-21.5h-22
		C1002.2,448.1,1004.3,442.9,1008.5,438.7z"/>
	<path fill="#A6A8AB" d="M1131,461.7c-3.1-2.1-8.9-4.2-16.2-5.2l-12-2.1c-5.8-1-9.4-2.1-10-2.1c-3.7-1.6-5.2-4.2-5.2-7.9
		c0-3.7,2.1-6.8,5.8-8.9c3.1-1.6,6.8-2.6,11-2.6c10.5,0,16.8,3.7,19.4,10.5l12-0.5c-3.1-13.1-13.6-19.9-31.4-19.9
		c-7.9,0-14.7,2.1-19.9,5.8c-6.3,4.2-9.4,10-9.4,17.8c0,6.3,2.6,11,7.3,14.1c3.7,2.6,9.4,4.7,17.3,5.8l12.6,2.6
		c10.5,1.6,15.7,5.8,15.7,12c0,4.2-2.1,7.9-6.3,10c-3.7,2.1-7.9,3.1-13.1,3.1c-14.1,0-22-4.2-23-12.6H1073
		c1.6,7.3,6.3,13.1,13.1,17.3c5.8,3.7,13.1,5.2,21.5,5.2c8.9,0,16.8-1.6,22.5-5.2c7.3-4.7,10.5-11,10.5-19.4
		C1140.4,472.2,1137.3,465.9,1131,461.7z"/>
	<path fill="#A6A8AB" d="M1212.7,461.7c-3.7-2.1-9.4-4.2-16.8-5.2l-11.5-2.1c-6.3-1-10-2.1-10.5-2.1c-3.7-1.6-5.2-4.2-5.2-7.9
		c0-3.7,2.1-6.8,5.8-8.9c3.1-1.6,6.8-2.6,11-2.6c10.5,0,16.8,3.7,19.4,10.5l12.6-0.5c-3.7-13.1-14.1-19.9-31.4-19.9
		c-8.4,0-15.2,2.1-20.4,5.8c-6.3,4.2-9.4,10-9.4,17.8c0,6.3,2.6,11,7.9,14.1c3.7,2.6,8.9,4.7,16.8,5.8l13.1,2.6
		c10,1.6,15.2,5.8,15.2,12c0,4.2-2.1,7.9-6.3,10c-3.7,2.1-7.9,3.1-12.6,3.1c-14.7,0-22-4.2-23.6-12.6h-12.6
		c2.1,7.3,6.3,13.1,13.1,17.3c6.3,3.7,13.6,5.2,22,5.2c8.9,0,16.2-1.6,22-5.2c7.3-4.7,11-11,11-19.4
		C1222.2,472.2,1219,465.9,1212.7,461.7z"/>
	<path fill="#A6A8AB" d="M46.3,421.4c-1,0-1.6,0-2.6,0c-8.9,0.5-15.7,5.8-20.4,15.2h-1v-1v-47.1v-10h5.2v-4.2H0.2v4.2h10v13.1v111
		H16l4.7-13.6c5.2,10,13.1,14.7,23,15.2c0.5,0,1,0,1,0c11,0,19.4-4.2,25.7-13.6c5.2-7.9,7.9-17.3,7.9-28.8c0-11-2.6-19.9-7.9-27.8
		C64.6,425.6,56.7,421.4,46.3,421.4z M60.4,484.3c-3.7,6.8-8.9,10-16.2,10c-0.5,0-0.5,0-0.5,0c-7.3,0-13.1-3.1-16.8-8.9
		c-3.1-4.2-4.7-10-4.7-15.7v-14.1c0-6.3,2.1-11.5,6.3-16.8c4.2-5.2,9.4-7.3,15.2-7.9c0,0,0,0,0.5,0c7.3,0,13.1,4.2,16.8,11.5
		c2.6,5.8,4.2,13.1,4.2,21.5C65.1,471.7,63.6,478.5,60.4,484.3z"/>
	<path fill="#A6A8AB" d="M886.9,420.9c-0.5,0-1,0-1.6,0c-10,0.5-17.8,5.2-23,15.2l-4.7-13.6h-5.8v111v13.6l-10-0.5v4.2H869v-4.2
		l-5.2,0.5v-10.5V490v-1h1c4.7,8.9,11.5,14.1,20.4,14.7c1,0,1.6,0,2.6,0c10.5,0,18.3-4.2,24.6-12.6c4.7-7.3,7.3-16.8,7.3-27.8
		c0-11.5-2.6-21-7.9-28.8C905.8,425.6,897.4,420.9,886.9,420.9z M902.7,482.7c-3.7,7.3-9.4,11.5-16.8,11.5c-0.5,0-0.5,0-0.5,0
		c-5.8-0.5-11-2.6-15.2-7.9c-4.2-4.7-6.3-10.5-6.3-16.8v-14.1c0-5.8,1.6-11,4.7-15.7c3.7-5.8,9.4-8.9,16.8-8.9c0,0,0,0,0.5,0
		c7.3,0,12.6,3.1,16.2,10c3.1,5.8,4.7,12.6,4.7,20.4C906.8,469.6,905.3,476.9,902.7,482.7z"/>
</g>
<path fill="#FEC057" d="M578.4,293.1c-8.4,3.1-16.2,7.3-23.6,12.6l-25.1-28.8c6.8-5.2,13.6-10.5,21-15.2L578.4,293.1z"/>
<path fill="#007AC2" d="M550.7,308.8c-6.8,4.7-13.1,10-19.9,16.2l-24.6-28.3c5.8-5.2,12.6-11,19.4-16.8L550.7,308.8z"/>
<path fill="#EF3E42" d="M526.6,328.7c-4.7,4.2-9.4,8.9-14.1,14.1c-1,1-2.6,2.6-4.2,4.2l-25.1-28.8c1-1,2.1-2.1,3.7-3.1
	c4.2-4.2,9.4-9.4,15.2-14.7L526.6,328.7z"/>
<path fill="#A6A8AB" d="M627.7,242.8c30.4,6.8,132,92.2,136.2,113.1c2.6,14.7-11.5,25.7-22.5,19.4c-24.1-14.1-81.2-94.8-145.1-86.4
	c-3.7,0.5-7.3,1.6-11,2.6l-28.8-34c6.3-3.7,12.6-6.8,18.3-9.4C596.2,238.6,610.9,239.1,627.7,242.8L627.7,242.8z M504.1,351.7
	c-4.7,4.7-9.4,8.9-13.1,11.5c-24.1,19.9-42.9-1-28.8-20.4c4.2-5.8,10-12.6,16.8-19.9L504.1,351.7z"/>
</svg>
