<?xml version="1.0" encoding="utf-8"?>
<!-- Generator: Adobe Illustrator 18.1.1, SVG Export Plug-In . SVG Version: 6.00 Build 0)  -->
<!DOCTYPE svg PUBLIC "-//W3C//DTD SVG 1.1//EN" "http://www.w3.org/Graphics/SVG/1.1/DTD/svg11.dtd">
<svg version="1.1" id="Layer_1" xmlns="http://www.w3.org/2000/svg" xmlns:xlink="http://www.w3.org/1999/xlink" x="0px" y="0px"
	 viewBox="0.2 240.3 433.9 110.2" enable-background="new 0.2 240.3 433.9 110.2" xml:space="preserve">
<g>
	<path fill="#A6A8AB" d="M4146.2,4245C4146.1,4245,4146.1,4245,4146.2,4245c-1.6,0-2.9,0.6-4,1.7s-1.6,2.4-1.6,4s0.5,2.9,1.6,4
		s2.4,1.7,4,1.7s2.9-0.6,4-1.7c1-1.2,1.6-2.5,1.6-4.1c0-1.5-0.6-2.9-1.7-4S4147.7,4245,4146.2,4245z M4149.1,4253.6
		c-0.7,0.9-1.7,1.3-2.9,1.3c-1.2,0-2.2-0.4-2.9-1.2c-0.7-0.8-1.1-1.8-1.1-3s0.4-2.2,1.2-3c0.7-0.8,1.7-1.2,2.7-1.2
		c0.1,0,0.1,0,0.1,0c1.1,0.1,2,0.4,2.7,1.2c0.8,0.7,1.2,1.7,1.2,2.9C4150.1,4251.8,4149.7,4252.8,4149.1,4253.6z"/>
	<path fill="#A6A8AB" d="M4158.8,4245L4158.8,4245c-1.5,0-2.8,0.6-3.9,1.7s-1.7,2.4-1.7,4s0.6,2.9,1.7,4s2.4,1.7,3.9,1.7h0.1
		c1.6,0,2.9-0.6,4-1.7c1-1.2,1.5-2.5,1.5-4.1c0-1.5-0.5-2.9-1.7-4C4161.6,4245.5,4160.3,4245,4158.8,4245z M4161.7,4253.6
		c-0.7,0.9-1.7,1.3-2.8,1.3h-0.1c-1.2,0-2.1-0.4-2.8-1.2c-0.7-0.8-1.1-1.8-1.1-3s0.4-2.2,1.1-3c0.8-0.8,1.7-1.2,2.7-1.2h0.1
		c1.2,0.1,2.1,0.4,2.8,1.2c0.7,0.7,1.2,1.7,1.2,2.9C4162.7,4251.8,4162.4,4252.8,4161.7,4253.6z"/>
	<path fill="#A6A8AB" d="M4177.9,4245.1c-0.7,0-1.4,0.2-2.1,0.6c-0.6,0.5-1,1.2-1.4,1.9c-0.1-0.8-0.5-1.4-1.1-1.9s-1.2-0.7-2-0.7
		c-0.7,0-1.4,0.2-1.9,0.6c-0.6,0.4-1,1-1.3,1.7h-0.1c0-1.2,0-1.7,0-1.8c0-0.2-0.2-0.4-0.5-0.4c-0.1,0-0.2,0-0.4,0
		c-0.2,0-0.4,0-0.6,0v10.9h1.7v-6.3c0-1.1,0.2-1.9,0.6-2.4c0.6-0.7,1.2-1.1,1.9-1.1c0.8,0,1.4,0.4,1.9,1c0.2,0.4,0.4,1,0.4,1.9v6.3
		h-0.7v0.6h3.7v-0.6h-1.4v-5.3c0-0.6,0-1.2,0.1-1.4c0.1-0.5,0.3-0.9,0.5-1.3c0.6-0.9,1.3-1.2,2.2-1.2c0.7,0,1.4,0.4,1.7,1.2
		c0.2,0.4,0.3,1.1,0.3,2.2v6.5h1.7v-6.5c0-1.5-0.2-2.6-0.6-3.2C4180.1,4245.6,4179.2,4245.1,4177.9,4245.1z"/>
	<path fill="#A6A8AB" d="M4193.3,4250.9c0-1.6-0.4-2.9-1.2-3.9c-0.9-1.2-2.1-1.7-3.7-1.7c-0.1,0-0.1,0-0.1,0c-1.6,0-2.8,0.5-3.7,1.6
		c-0.9,1-1.3,2.2-1.3,3.8c0,1.7,0.4,3,1.3,4c0.9,1.1,2.1,1.7,3.7,1.7c0,0,0,0,0.1,0c1,0,2-0.3,2.9-0.9s1.4-1.4,1.7-2.3l-2.6-0.1v0.5
		h0.6c-0.5,0.9-1.3,1.3-2.6,1.3h-0.1c-0.5,0-1-0.1-1.4-0.4c-0.5-0.3-0.9-0.7-1.2-1.2c-0.4-0.8-0.6-1.7-0.6-2.4h3.2H4193.3z
		 M4186.3,4247.5c0.5-0.6,1.2-0.8,2.1-0.9c0,0,0,0,0.1,0c0.9,0,1.7,0.3,2.2,0.9c0.6,0.6,0.8,1.3,0.8,2.2h-3h-3
		C4185.4,4248.8,4185.7,4248.1,4186.3,4247.5z"/>
	<path fill="#A6A8AB" d="M4197.3,4247.9c0-1.4,0-2.1,0-2.2c-0.1-0.3-0.2-0.4-0.6-0.4c-0.1,0-0.2,0-0.4,0c-0.2,0-0.4,0-0.6,0v10.5
		h-0.6v0.4h3.3v-0.4h-1v-5c0-0.4,0-0.6,0.1-0.9c0.1-0.9,0.4-1.7,1-2.3c0.6-0.6,1.4-0.9,2.3-0.9h0.3v-1.6l-0.6-0.1
		C4199.1,4245,4198,4245.9,4197.3,4247.9z"/>
	<path fill="#A6A8AB" d="M4212.5,4249.7c0-1.7-0.3-2.9-0.9-3.5c-0.6-0.7-1.8-1.1-3.4-1.1c-0.1,0-0.1,0-0.3,0c-1,0-1.9,0.2-2.7,0.6
		c-1,0.5-1.6,1.3-1.7,2.3h1.6c0.1-0.6,0.5-1.2,1.1-1.4c0.4-0.2,0.9-0.3,1.7-0.3c0.1,0,0.1,0,0.1,0c1,0,1.7,0.2,2.2,0.6
		c0.4,0.4,0.6,1.1,0.6,2.1v0.4h-1.4c-0.5,0-1,0-1.5,0.1c-1.2,0.1-2,0.3-2.7,0.6s-1.2,0.7-1.5,1.2c-0.4,0.6-0.5,1.2-0.5,1.8
		c0,1.1,0.4,1.9,1.2,2.5c0.6,0.5,1.6,0.8,2.7,0.8c0.3,0,0.6,0,0.9-0.1c1.4-0.2,2.3-0.9,3-2.2l0.1,2h1.7c-0.1-0.5-0.3-1.3-0.3-2.3
		L4212.5,4249.7L4212.5,4249.7z M4210.9,4251.5c0,1-0.4,1.8-0.9,2.5c-0.6,0.6-1.2,1-2,1.1c-0.1,0.1-0.4,0.1-0.5,0.1
		c-0.7,0-1.2-0.1-1.7-0.4c-0.5-0.4-0.7-0.9-0.7-1.5c0-1.3,0.9-2.1,2.9-2.4c0.5-0.1,1-0.1,1.5-0.1h1.4L4210.9,4251.5L4210.9,4251.5z"
		/>
	<path fill="#A6A8AB" d="M4222.8,4245.3c-0.4,0-0.5,0.1-0.6,0.4c0,0,0,0.6,0,1.7c-0.7-1.6-1.9-2.3-3.5-2.3c-1.4,0-2.4,0.5-3.1,1.7
		c-0.3,0.6-0.5,1.7-0.5,3.5v6h1.7v-6.8c0-1,0.1-1.7,0.4-2c0.4-0.6,1-0.9,1.9-0.9s1.6,0.4,2.2,1.1c0.6,0.6,0.9,1.7,0.9,3v5.7h1.7
		v-10.9c-0.1,0-0.4,0-0.6,0C4223,4245.3,4222.9,4245.3,4222.8,4245.3z"/>
	<path fill="#A6A8AB" d="M4234.4,4254.9c-0.4-0.1-0.9-0.3-1.6-0.4c-0.3,0-0.9,0-1.7-0.1c-0.2,0-0.5,0-0.7,0c-1-0.1-1.7-0.1-1.9-0.1
		c-0.5-0.1-0.8-0.4-0.8-0.9c0-0.3,0.1-0.5,0.4-0.7s0.5-0.3,0.8-0.3c-0.1,0,0.1,0,0.7,0.1c0.1,0.1,0.4,0.1,0.8,0.1
		c1.2,0,2-0.3,2.7-0.8c0.9-0.7,1.4-1.7,1.4-2.7s-0.4-1.9-1.1-2.7l-0.9-0.7c-0.6-0.3-1.4-0.4-2.2-0.4c-1.2,0-2.1,0.3-2.9,0.9
		c-0.9,0.7-1.3,1.7-1.3,2.7c0,1.2,0.5,2.2,1.4,2.9c-1,0.5-1.5,1.2-1.5,1.9c0,0.7,0.4,1.3,1,1.7c-1.1,0.4-1.7,1.2-1.7,2.2
		s0.6,1.9,1.9,2.4c0.7,0.2,1.7,0.4,3,0.4c0.1,0,0.1,0,0.2,0c3.6,0,5.4-1.1,5.4-3.2c0-0.5-0.1-1-0.5-1.4
		C4235.2,4255.3,4234.9,4255,4234.4,4254.9z M4228.7,4247.1c0.4-0.5,1-0.7,1.7-0.7s1.3,0.2,1.7,0.7c0.5,0.4,0.7,1,0.7,1.7
		s-0.2,1.4-0.6,1.8s-1.1,0.6-1.8,0.6c-0.7,0-1.3-0.2-1.8-0.6c-0.4-0.4-0.6-1-0.6-1.7S4228.2,4247.6,4228.7,4247.1z M4233.4,4258.6
		c-0.6,0.3-1.6,0.4-2.8,0.4c-0.1,0-0.1,0-0.2,0c-0.7,0-1.4-0.1-1.9-0.3c-0.9-0.3-1.4-0.8-1.4-1.4s0.4-1.2,1.2-1.5l2,0.1l0.6,0.1h1.1
		c1.6,0,2.4,0.4,2.4,1.3C4234.5,4257.9,4234.1,4258.4,4233.4,4258.6z"/>
	<path fill="#A6A8AB" d="M4258.4,4247.9L4258.4,4247.9c-0.1-1.4-0.1-2.1-0.1-2.2c-0.1-0.3-0.2-0.4-0.6-0.4c-0.1,0-0.1,0-0.4,0
		s-0.4,0-0.6,0v10.5h-0.6v0.4h3.3v-0.4h-1v-5c0-0.4,0.1-0.6,0.1-0.9c0.1-0.9,0.4-1.7,1.1-2.3c0.6-0.6,1.4-0.9,2.2-0.9h0.4v-1.6
		l-0.6-0.1C4260.2,4245,4259.1,4245.9,4258.4,4247.9z"/>
	<path fill="#A6A8AB" d="M4273.8,4250.9c0.1-1.6-0.3-2.9-1.1-3.9c-0.9-1.2-2.1-1.7-3.7-1.7s-2.8,0.5-3.7,1.6c-0.9,1-1.3,2.2-1.3,3.8
		c0,1.7,0.4,3,1.2,4c0.9,1.1,2.2,1.7,3.7,1.7c1.1,0,2-0.3,2.9-0.9s1.4-1.4,1.8-2.3l-2.6-0.1v0.5h0.6c-0.5,0.9-1.4,1.3-2.6,1.3
		c-0.1,0-0.1,0-0.1,0c-0.5,0-1-0.1-1.5-0.4s-0.9-0.7-1.2-1.2c-0.4-0.8-0.6-1.7-0.6-2.4h3.3H4273.8z M4266.8,4247.5
		c0.6-0.6,1.3-0.8,2.2-0.9c0.9,0,1.7,0.3,2.2,0.9s0.8,1.3,0.7,2.2h-3h-3C4265.9,4248.8,4266.2,4248.1,4266.8,4247.5z"/>
	<path fill="#A6A8AB" d="M4283.6,4250.7c-0.4-0.3-1.2-0.6-2.2-0.7l-1.7-0.3c-0.8-0.1-1.3-0.3-1.4-0.3c-0.5-0.2-0.7-0.6-0.7-1.1
		s0.3-0.9,0.8-1.2c0.4-0.2,0.9-0.4,1.5-0.4c1.4,0,2.3,0.5,2.7,1.4l1.7-0.1c-0.4-1.8-1.9-2.7-4.3-2.7c-1.1,0-2,0.3-2.7,0.8
		c-0.9,0.6-1.3,1.4-1.3,2.4c0,0.9,0.4,1.5,1,1.9c0.5,0.4,1.3,0.6,2.4,0.8l1.7,0.4c1.4,0.2,2.2,0.8,2.2,1.7c0,0.6-0.3,1.1-0.9,1.4
		c-0.5,0.3-1.1,0.4-1.8,0.4c-1.9,0-3-0.6-3.2-1.7h-1.7c0.2,1,0.9,1.8,1.8,2.4c0.8,0.5,1.8,0.7,3,0.7s2.3-0.2,3.1-0.7
		c1-0.6,1.4-1.5,1.4-2.7C4284.9,4252.1,4284.5,4251.2,4283.6,4250.7z"/>
	<path fill="#A6A8AB" d="M4294.9,4250.7c-0.5-0.3-1.3-0.6-2.3-0.7l-1.6-0.3c-0.9-0.1-1.4-0.3-1.4-0.3c-0.5-0.2-0.7-0.6-0.7-1.1
		s0.3-0.9,0.8-1.2c0.4-0.2,0.9-0.4,1.5-0.4c1.4,0,2.3,0.5,2.7,1.4l1.7-0.1c-0.5-1.8-1.9-2.7-4.3-2.7c-1.2,0-2.1,0.3-2.8,0.8
		c-0.9,0.6-1.3,1.4-1.3,2.4c0,0.9,0.4,1.5,1.1,1.9c0.5,0.4,1.2,0.6,2.3,0.8l1.8,0.4c1.4,0.2,2.1,0.8,2.1,1.7c0,0.6-0.3,1.1-0.9,1.4
		c-0.5,0.3-1.1,0.4-1.7,0.4c-2,0-3-0.6-3.2-1.7h-1.7c0.3,1,0.9,1.8,1.8,2.4c0.9,0.5,1.9,0.7,3,0.7c1.2,0,2.2-0.2,3-0.7
		c1-0.6,1.5-1.5,1.5-2.7C4296.2,4252.1,4295.7,4251.2,4294.9,4250.7z"/>
	<path fill="#A6A8AB" d="M4134.5,4245.1c-0.1,0-0.2,0-0.4,0c-1.2,0.1-2.2,0.8-2.8,2.1h-0.1v-0.1v-6.5v-1.4h0.7v-0.6h-3.7v0.6h1.4
		v1.8v15.3h0.8l0.6-1.9c0.7,1.4,1.8,2,3.2,2.1c0.1,0,0.1,0,0.1,0c1.5,0,2.7-0.6,3.5-1.9c0.7-1.1,1.1-2.4,1.1-4
		c0-1.5-0.4-2.7-1.1-3.8C4137,4245.7,4136,4245.1,4134.5,4245.1z M4136.5,4253.7c-0.5,0.9-1.2,1.4-2.2,1.4c-0.1,0-0.1,0-0.1,0
		c-1,0-1.8-0.4-2.3-1.2c-0.4-0.6-0.6-1.4-0.6-2.2v-1.9c0-0.9,0.3-1.6,0.9-2.3c0.6-0.7,1.3-1,2.1-1.1c0,0,0,0,0.1,0
		c1,0,1.8,0.6,2.3,1.6c0.4,0.8,0.6,1.8,0.6,3C4137.1,4252,4136.9,4253,4136.5,4253.7z"/>
	<path fill="#A6A8AB" d="M4250.1,4245c-0.1,0-0.1,0-0.2,0c-1.4,0.1-2.4,0.7-3.2,2.1l-0.6-1.9h-0.8v15.3v1.9l-1.4-0.1v0.6h3.7v-0.6
		l-0.7,0.1v-1.4v-6.4v-0.1h0.1c0.6,1.2,1.6,1.9,2.8,2c0.1,0,0.2,0,0.4,0c1.4,0,2.5-0.6,3.4-1.7c0.6-1,1-2.3,1-3.8
		c0-1.6-0.4-2.9-1.1-4C4252.7,4245.7,4251.5,4245,4250.1,4245z M4252.2,4253.5c-0.5,1-1.3,1.6-2.3,1.6c-0.1,0-0.1,0-0.1,0
		c-0.8-0.1-1.5-0.4-2.1-1.1c-0.6-0.6-0.9-1.4-0.9-2.3v-1.9c0-0.8,0.2-1.5,0.6-2.2c0.5-0.8,1.3-1.2,2.3-1.2c0,0,0,0,0.1,0
		c1,0,1.7,0.4,2.2,1.4c0.4,0.8,0.6,1.7,0.6,2.8C4252.8,4251.7,4252.6,4252.7,4252.2,4253.5z"/>
</g>
<path fill="#FEC057" d="M4207.7,4227.5c-1.2,0.4-2.2,1-3.2,1.7l-3.5-4c0.9-0.7,1.9-1.4,2.9-2.1L4207.7,4227.5z"/>
<path fill="#007AC2" d="M4203.9,4229.6c-0.9,0.6-1.8,1.4-2.7,2.2l-3.4-3.9c0.8-0.7,1.7-1.5,2.7-2.3L4203.9,4229.6z"/>
<path fill="#EF3E42" d="M4200.5,4232.4c-0.6,0.6-1.3,1.2-1.9,1.9c-0.1,0.1-0.4,0.4-0.6,0.6l-3.5-4c0.1-0.1,0.3-0.3,0.5-0.4
	c0.6-0.6,1.3-1.3,2.1-2L4200.5,4232.4z"/>
<path fill="#A6A8AB" d="M4214.4,4220.6c4.2,0.9,18.1,12.7,18.7,15.6c0.4,2-1.6,3.5-3.1,2.7c-3.3-1.9-11.2-13-19.9-11.9
	c-0.5,0.1-1,0.2-1.5,0.4l-4-4.7c0.9-0.5,1.7-0.9,2.5-1.3C4210.1,4220,4212.1,4220.1,4214.4,4220.6L4214.4,4220.6z M4197.4,4235.5
	c-0.6,0.6-1.3,1.2-1.8,1.6c-3.3,2.7-5.9-0.1-4-2.8c0.6-0.8,1.4-1.7,2.3-2.7L4197.4,4235.5z"/>
<g>
	<path fill="#A6A8AB" d="M4146.2,4245C4146.1,4245,4146.1,4245,4146.2,4245c-1.6,0-2.9,0.6-4,1.7s-1.6,2.4-1.6,4s0.5,2.9,1.6,4
		s2.4,1.7,4,1.7s2.9-0.6,4-1.7c1-1.2,1.6-2.5,1.6-4.1c0-1.5-0.6-2.9-1.7-4S4147.7,4245,4146.2,4245z M4149.1,4253.6
		c-0.7,0.9-1.7,1.3-2.9,1.3c-1.2,0-2.2-0.4-2.9-1.2c-0.7-0.8-1.1-1.8-1.1-3s0.4-2.2,1.2-3c0.7-0.8,1.7-1.2,2.7-1.2
		c0.1,0,0.1,0,0.1,0c1.1,0.1,2,0.4,2.7,1.2c0.8,0.7,1.2,1.7,1.2,2.9C4150.1,4251.8,4149.7,4252.8,4149.1,4253.6z"/>
	<path fill="#A6A8AB" d="M4158.8,4245L4158.8,4245c-1.5,0-2.8,0.6-3.9,1.7s-1.7,2.4-1.7,4s0.6,2.9,1.7,4s2.4,1.7,3.9,1.7h0.1
		c1.6,0,2.9-0.6,4-1.7c1-1.2,1.5-2.5,1.5-4.1c0-1.5-0.5-2.9-1.7-4C4161.6,4245.5,4160.3,4245,4158.8,4245z M4161.7,4253.6
		c-0.7,0.9-1.7,1.3-2.8,1.3h-0.1c-1.2,0-2.1-0.4-2.8-1.2c-0.7-0.8-1.1-1.8-1.1-3s0.4-2.2,1.1-3c0.8-0.8,1.7-1.2,2.7-1.2h0.1
		c1.2,0.1,2.1,0.4,2.8,1.2c0.7,0.7,1.2,1.7,1.2,2.9C4162.7,4251.8,4162.4,4252.8,4161.7,4253.6z"/>
	<path fill="#A6A8AB" d="M4177.9,4245.1c-0.7,0-1.4,0.2-2.1,0.6c-0.6,0.5-1,1.2-1.4,1.9c-0.1-0.8-0.5-1.4-1.1-1.9s-1.2-0.7-2-0.7
		c-0.7,0-1.4,0.2-1.9,0.6c-0.6,0.4-1,1-1.3,1.7h-0.1c0-1.2,0-1.7,0-1.8c0-0.2-0.2-0.4-0.5-0.4c-0.1,0-0.2,0-0.4,0
		c-0.2,0-0.4,0-0.6,0v10.9h1.7v-6.3c0-1.1,0.2-1.9,0.6-2.4c0.6-0.7,1.2-1.1,1.9-1.1c0.8,0,1.4,0.4,1.9,1c0.2,0.4,0.4,1,0.4,1.9v6.3
		h-0.7v0.6h3.7v-0.6h-1.4v-5.3c0-0.6,0-1.2,0.1-1.4c0.1-0.5,0.3-0.9,0.5-1.3c0.6-0.9,1.3-1.2,2.2-1.2c0.7,0,1.4,0.4,1.7,1.2
		c0.2,0.4,0.3,1.1,0.3,2.2v6.5h1.7v-6.5c0-1.5-0.2-2.6-0.6-3.2C4180.1,4245.6,4179.2,4245.1,4177.9,4245.1z"/>
	<path fill="#A6A8AB" d="M4193.3,4250.9c0-1.6-0.4-2.9-1.2-3.9c-0.9-1.2-2.1-1.7-3.7-1.7c-0.1,0-0.1,0-0.1,0c-1.6,0-2.8,0.5-3.7,1.6
		c-0.9,1-1.3,2.2-1.3,3.8c0,1.7,0.4,3,1.3,4c0.9,1.1,2.1,1.7,3.7,1.7c0,0,0,0,0.1,0c1,0,2-0.3,2.9-0.9s1.4-1.4,1.7-2.3l-2.6-0.1v0.5
		h0.6c-0.5,0.9-1.3,1.3-2.6,1.3h-0.1c-0.5,0-1-0.1-1.4-0.4c-0.5-0.3-0.9-0.7-1.2-1.2c-0.4-0.8-0.6-1.7-0.6-2.4h3.2H4193.3z
		 M4186.3,4247.5c0.5-0.6,1.2-0.8,2.1-0.9c0,0,0,0,0.1,0c0.9,0,1.7,0.3,2.2,0.9c0.6,0.6,0.8,1.3,0.8,2.2h-3h-3
		C4185.4,4248.8,4185.7,4248.1,4186.3,4247.5z"/>
	<path fill="#A6A8AB" d="M4197.3,4247.9c0-1.4,0-2.1,0-2.2c-0.1-0.3-0.2-0.4-0.6-0.4c-0.1,0-0.2,0-0.4,0c-0.2,0-0.4,0-0.6,0v10.5
		h-0.6v0.4h3.3v-0.4h-1v-5c0-0.4,0-0.6,0.1-0.9c0.1-0.9,0.4-1.7,1-2.3c0.6-0.6,1.4-0.9,2.3-0.9h0.3v-1.6l-0.6-0.1
		C4199.1,4245,4198,4245.9,4197.3,4247.9z"/>
	<path fill="#A6A8AB" d="M4212.5,4249.7c0-1.7-0.3-2.9-0.9-3.5c-0.6-0.7-1.8-1.1-3.4-1.1c-0.1,0-0.1,0-0.3,0c-1,0-1.9,0.2-2.7,0.6
		c-1,0.5-1.6,1.3-1.7,2.3h1.6c0.1-0.6,0.5-1.2,1.1-1.4c0.4-0.2,0.9-0.3,1.7-0.3c0.1,0,0.1,0,0.1,0c1,0,1.7,0.2,2.2,0.6
		c0.4,0.4,0.6,1.1,0.6,2.1v0.4h-1.4c-0.5,0-1,0-1.5,0.1c-1.2,0.1-2,0.3-2.7,0.6s-1.2,0.7-1.5,1.2c-0.4,0.6-0.5,1.2-0.5,1.8
		c0,1.1,0.4,1.9,1.2,2.5c0.6,0.5,1.6,0.8,2.7,0.8c0.3,0,0.6,0,0.9-0.1c1.4-0.2,2.3-0.9,3-2.2l0.1,2h1.7c-0.1-0.5-0.3-1.3-0.3-2.3
		L4212.5,4249.7L4212.5,4249.7z M4210.9,4251.5c0,1-0.4,1.8-0.9,2.5c-0.6,0.6-1.2,1-2,1.1c-0.1,0.1-0.4,0.1-0.5,0.1
		c-0.7,0-1.2-0.1-1.7-0.4c-0.5-0.4-0.7-0.9-0.7-1.5c0-1.3,0.9-2.1,2.9-2.4c0.5-0.1,1-0.1,1.5-0.1h1.4L4210.9,4251.5L4210.9,4251.5z"
		/>
	<path fill="#A6A8AB" d="M4222.8,4245.3c-0.4,0-0.5,0.1-0.6,0.4c0,0,0,0.6,0,1.7c-0.7-1.6-1.9-2.3-3.5-2.3c-1.4,0-2.4,0.5-3.1,1.7
		c-0.3,0.6-0.5,1.7-0.5,3.5v6h1.7v-6.8c0-1,0.1-1.7,0.4-2c0.4-0.6,1-0.9,1.9-0.9s1.6,0.4,2.2,1.1c0.6,0.6,0.9,1.7,0.9,3v5.7h1.7
		v-10.9c-0.1,0-0.4,0-0.6,0C4223,4245.3,4222.9,4245.3,4222.8,4245.3z"/>
	<path fill="#A6A8AB" d="M4234.4,4254.9c-0.4-0.1-0.9-0.3-1.6-0.4c-0.3,0-0.9,0-1.7-0.1c-0.2,0-0.5,0-0.7,0c-1-0.1-1.7-0.1-1.9-0.1
		c-0.5-0.1-0.8-0.4-0.8-0.9c0-0.3,0.1-0.5,0.4-0.7s0.5-0.3,0.8-0.3c-0.1,0,0.1,0,0.7,0.1c0.1,0.1,0.4,0.1,0.8,0.1
		c1.2,0,2-0.3,2.7-0.8c0.9-0.7,1.4-1.7,1.4-2.7s-0.4-1.9-1.1-2.7l-0.9-0.7c-0.6-0.3-1.4-0.4-2.2-0.4c-1.2,0-2.1,0.3-2.9,0.9
		c-0.9,0.7-1.3,1.7-1.3,2.7c0,1.2,0.5,2.2,1.4,2.9c-1,0.5-1.5,1.2-1.5,1.9c0,0.7,0.4,1.3,1,1.7c-1.1,0.4-1.7,1.2-1.7,2.2
		s0.6,1.9,1.9,2.4c0.7,0.2,1.7,0.4,3,0.4c0.1,0,0.1,0,0.2,0c3.6,0,5.4-1.1,5.4-3.2c0-0.5-0.1-1-0.5-1.4
		C4235.2,4255.3,4234.9,4255,4234.4,4254.9z M4228.7,4247.1c0.4-0.5,1-0.7,1.7-0.7s1.3,0.2,1.7,0.7c0.5,0.4,0.7,1,0.7,1.7
		s-0.2,1.4-0.6,1.8s-1.1,0.6-1.8,0.6c-0.7,0-1.3-0.2-1.8-0.6c-0.4-0.4-0.6-1-0.6-1.7S4228.2,4247.6,4228.7,4247.1z M4233.4,4258.6
		c-0.6,0.3-1.6,0.4-2.8,0.4c-0.1,0-0.1,0-0.2,0c-0.7,0-1.4-0.1-1.9-0.3c-0.9-0.3-1.4-0.8-1.4-1.4s0.4-1.2,1.2-1.5l2,0.1l0.6,0.1h1.1
		c1.6,0,2.4,0.4,2.4,1.3C4234.5,4257.9,4234.1,4258.4,4233.4,4258.6z"/>
	<path fill="#A6A8AB" d="M4258.4,4247.9L4258.4,4247.9c-0.1-1.4-0.1-2.1-0.1-2.2c-0.1-0.3-0.2-0.4-0.6-0.4c-0.1,0-0.1,0-0.4,0
		s-0.4,0-0.6,0v10.5h-0.6v0.4h3.3v-0.4h-1v-5c0-0.4,0.1-0.6,0.1-0.9c0.1-0.9,0.4-1.7,1.1-2.3c0.6-0.6,1.4-0.9,2.2-0.9h0.4v-1.6
		l-0.6-0.1C4260.2,4245,4259.1,4245.9,4258.4,4247.9z"/>
	<path fill="#A6A8AB" d="M4273.8,4250.9c0.1-1.6-0.3-2.9-1.1-3.9c-0.9-1.2-2.1-1.7-3.7-1.7s-2.8,0.5-3.7,1.6c-0.9,1-1.3,2.2-1.3,3.8
		c0,1.7,0.4,3,1.2,4c0.9,1.1,2.2,1.7,3.7,1.7c1.1,0,2-0.3,2.9-0.9s1.4-1.4,1.8-2.3l-2.6-0.1v0.5h0.6c-0.5,0.9-1.4,1.3-2.6,1.3
		c-0.1,0-0.1,0-0.1,0c-0.5,0-1-0.1-1.5-0.4s-0.9-0.7-1.2-1.2c-0.4-0.8-0.6-1.7-0.6-2.4h3.3H4273.8z M4266.8,4247.5
		c0.6-0.6,1.3-0.8,2.2-0.9c0.9,0,1.7,0.3,2.2,0.9s0.8,1.3,0.7,2.2h-3h-3C4265.9,4248.8,4266.2,4248.1,4266.8,4247.5z"/>
	<path fill="#A6A8AB" d="M4283.6,4250.7c-0.4-0.3-1.2-0.6-2.2-0.7l-1.7-0.3c-0.8-0.1-1.3-0.3-1.4-0.3c-0.5-0.2-0.7-0.6-0.7-1.1
		s0.3-0.9,0.8-1.2c0.4-0.2,0.9-0.4,1.5-0.4c1.4,0,2.3,0.5,2.7,1.4l1.7-0.1c-0.4-1.8-1.9-2.7-4.3-2.7c-1.1,0-2,0.3-2.7,0.8
		c-0.9,0.6-1.3,1.4-1.3,2.4c0,0.9,0.4,1.5,1,1.9c0.5,0.4,1.3,0.6,2.4,0.8l1.7,0.4c1.4,0.2,2.2,0.8,2.2,1.7c0,0.6-0.3,1.1-0.9,1.4
		c-0.5,0.3-1.1,0.4-1.8,0.4c-1.9,0-3-0.6-3.2-1.7h-1.7c0.2,1,0.9,1.8,1.8,2.4c0.8,0.5,1.8,0.7,3,0.7s2.3-0.2,3.1-0.7
		c1-0.6,1.4-1.5,1.4-2.7C4284.9,4252.1,4284.5,4251.2,4283.6,4250.7z"/>
	<path fill="#A6A8AB" d="M4294.9,4250.7c-0.5-0.3-1.3-0.6-2.3-0.7l-1.6-0.3c-0.9-0.1-1.4-0.3-1.4-0.3c-0.5-0.2-0.7-0.6-0.7-1.1
		s0.3-0.9,0.8-1.2c0.4-0.2,0.9-0.4,1.5-0.4c1.4,0,2.3,0.5,2.7,1.4l1.7-0.1c-0.5-1.8-1.9-2.7-4.3-2.7c-1.2,0-2.1,0.3-2.8,0.8
		c-0.9,0.6-1.3,1.4-1.3,2.4c0,0.9,0.4,1.5,1.1,1.9c0.5,0.4,1.2,0.6,2.3,0.8l1.8,0.4c1.4,0.2,2.1,0.8,2.1,1.7c0,0.6-0.3,1.1-0.9,1.4
		c-0.5,0.3-1.1,0.4-1.7,0.4c-2,0-3-0.6-3.2-1.7h-1.7c0.3,1,0.9,1.8,1.8,2.4c0.9,0.5,1.9,0.7,3,0.7c1.2,0,2.2-0.2,3-0.7
		c1-0.6,1.5-1.5,1.5-2.7C4296.2,4252.1,4295.7,4251.2,4294.9,4250.7z"/>
	<path fill="#A6A8AB" d="M4134.5,4245.1c-0.1,0-0.2,0-0.4,0c-1.2,0.1-2.2,0.8-2.8,2.1h-0.1v-0.1v-6.5v-1.4h0.7v-0.6h-3.7v0.6h1.4
		v1.8v15.3h0.8l0.6-1.9c0.7,1.4,1.8,2,3.2,2.1c0.1,0,0.1,0,0.1,0c1.5,0,2.7-0.6,3.5-1.9c0.7-1.1,1.1-2.4,1.1-4
		c0-1.5-0.4-2.7-1.1-3.8C4137,4245.7,4136,4245.1,4134.5,4245.1z M4136.5,4253.7c-0.5,0.9-1.2,1.4-2.2,1.4c-0.1,0-0.1,0-0.1,0
		c-1,0-1.8-0.4-2.3-1.2c-0.4-0.6-0.6-1.4-0.6-2.2v-1.9c0-0.9,0.3-1.6,0.9-2.3c0.6-0.7,1.3-1,2.1-1.1c0,0,0,0,0.1,0
		c1,0,1.8,0.6,2.3,1.6c0.4,0.8,0.6,1.8,0.6,3C4137.1,4252,4136.9,4253,4136.5,4253.7z"/>
	<path fill="#A6A8AB" d="M4250.1,4245c-0.1,0-0.1,0-0.2,0c-1.4,0.1-2.4,0.7-3.2,2.1l-0.6-1.9h-0.8v15.3v1.9l-1.4-0.1v0.6h3.7v-0.6
		l-0.7,0.1v-1.4v-6.4v-0.1h0.1c0.6,1.2,1.6,1.9,2.8,2c0.1,0,0.2,0,0.4,0c1.4,0,2.5-0.6,3.4-1.7c0.6-1,1-2.3,1-3.8
		c0-1.6-0.4-2.9-1.1-4C4252.7,4245.7,4251.5,4245,4250.1,4245z M4252.2,4253.5c-0.5,1-1.3,1.6-2.3,1.6c-0.1,0-0.1,0-0.1,0
		c-0.8-0.1-1.5-0.4-2.1-1.1c-0.6-0.6-0.9-1.4-0.9-2.3v-1.9c0-0.8,0.2-1.5,0.6-2.2c0.5-0.8,1.3-1.2,2.3-1.2c0,0,0,0,0.1,0
		c1,0,1.7,0.4,2.2,1.4c0.4,0.8,0.6,1.7,0.6,2.8C4252.8,4251.7,4252.6,4252.7,4252.2,4253.5z"/>
</g>
<path fill="#FEC057" d="M4207.7,4227.5c-1.2,0.4-2.2,1-3.2,1.7l-3.5-4c0.9-0.7,1.9-1.4,2.9-2.1L4207.7,4227.5z"/>
<path fill="#007AC2" d="M4203.9,4229.6c-0.9,0.6-1.8,1.4-2.7,2.2l-3.4-3.9c0.8-0.7,1.7-1.5,2.7-2.3L4203.9,4229.6z"/>
<path fill="#EF3E42" d="M4200.5,4232.4c-0.6,0.6-1.3,1.2-1.9,1.9c-0.1,0.1-0.4,0.4-0.6,0.6l-3.5-4c0.1-0.1,0.3-0.3,0.5-0.4
	c0.6-0.6,1.3-1.3,2.1-2L4200.5,4232.4z"/>
<path fill="#A6A8AB" d="M4214.4,4220.6c4.2,0.9,18.1,12.7,18.7,15.6c0.4,2-1.6,3.5-3.1,2.7c-3.3-1.9-11.2-13-19.9-11.9
	c-0.5,0.1-1,0.2-1.5,0.4l-4-4.7c0.9-0.5,1.7-0.9,2.5-1.3C4210.1,4220,4212.1,4220.1,4214.4,4220.6L4214.4,4220.6z M4197.4,4235.5
	c-0.6,0.6-1.3,1.2-1.8,1.6c-3.3,2.7-5.9-0.1-4-2.8c0.6-0.8,1.4-1.7,2.3-2.7L4197.4,4235.5z"/>
<g>
	<g>
		<path fill="#A6A8AB" d="M46.7,304.3c-0.2,0-0.2,0-0.2,0c-3.9,0-7.2,1.5-10,4.5c-2.8,2.8-4.1,6.3-4.1,10.4c0,4.1,1.3,7.5,4.1,10.4
			c2.8,2.8,6.1,4.3,10.2,4.3s7.5-1.5,10.2-4.5c2.6-3,4.1-6.5,4.1-10.6c0-3.9-1.5-7.5-4.3-10.2C54,305.7,50.6,304.4,46.7,304.3z
			 M54.1,326.6c-1.8,2.2-4.5,3.3-7.5,3.3c-3.2,0-5.6-1.1-7.5-3.2c-1.8-2.1-2.8-4.7-2.8-7.6s0.9-5.6,3-7.8c1.8-2.1,4.3-3.2,6.9-3.2
			c0.2,0,0.2,0,0.4,0c2.8,0.2,5.2,1.1,7.1,3.2c2.1,1.8,3,4.5,3,7.5C56.7,321.9,55.8,324.5,54.1,326.6z"/>
		<path fill="#A6A8AB" d="M79.2,304.3c0,0,0,0-0.2,0c-3.7,0-7.1,1.5-9.9,4.5c-2.8,2.8-4.3,6.3-4.3,10.4c0,4.1,1.5,7.5,4.3,10.4
			c2.8,2.8,6.1,4.3,10,4.3h0.2c4.1,0,7.5-1.5,10.2-4.5c2.6-3,3.9-6.5,3.9-10.6c0-3.9-1.3-7.5-4.3-10.2
			C86.5,305.7,83.1,304.4,79.2,304.3z M86.7,326.6c-1.8,2.2-4.3,3.3-7.2,3.3h-0.2c-3,0-5.4-1.1-7.2-3.2s-2.8-4.7-2.8-7.6
			s0.9-5.6,2.8-7.8c2.1-2.1,4.3-3.2,7.1-3.2h0.2c3,0.2,5.4,1.1,7.2,3.2c1.8,1.8,3,4.5,3,7.5C89.5,321.9,88.5,324.5,86.7,326.6z"/>
		<path fill="#A6A8AB" d="M128.7,304.6c-1.8,0-3.7,0.6-5.4,1.7c-1.5,1.3-2.6,3-3.6,5c-0.4-2.1-1.3-3.7-2.8-4.8
			c-1.5-1.3-3.2-1.8-5.2-1.8c-1.8,0-3.6,0.6-5,1.7c-1.5,1.1-2.6,2.6-3.3,4.5h-0.2c0-3,0-4.5,0-4.7c0-0.6-0.6-0.9-1.3-0.9
			c-0.2,0-0.6,0-1.1,0c-0.6,0-1.1,0-1.5,0v28.3h4.5v-16.2c0-2.8,0.6-4.8,1.7-6.3c1.5-1.8,3.2-2.8,5-2.8c2.1,0,3.7,0.9,4.8,2.6
			c0.6,1.1,0.9,2.6,0.9,4.8v16.4h-1.8v1.5h9.7v-1.5h-3.6v-13.8c0-1.7,0-3,0.2-3.6c0.2-1.3,0.7-2.4,1.3-3.3c1.5-2.2,3.3-3.2,5.6-3.2
			c1.8,0,3.6,0.9,4.5,3c0.6,0.9,0.7,2.8,0.7,5.6v16.7h4.5v-16.7c0-3.9-0.6-6.7-1.5-8.2C134.3,305.9,131.8,304.6,128.7,304.6z"/>
		<path fill="#A6A8AB" d="M168.3,319.7c0-4.1-0.9-7.5-3-10c-2.2-3-5.4-4.3-9.5-4.3c-0.2,0-0.2,0-0.2,0c-4.1,0-7.2,1.3-9.5,4.1
			c-2.2,2.6-3.3,5.8-3.3,9.9c0,4.3,1.1,7.6,3.3,10.4c2.2,2.8,5.4,4.3,9.5,4.3c0,0,0,0,0.2,0c2.6,0,5.2-0.7,7.5-2.2
			c2.2-1.5,3.7-3.6,4.5-6l-6.7-0.2v1.3h1.7c-1.3,2.2-3.3,3.3-6.7,3.3c0,0-0.2,0-0.4,0c-1.3,0-2.6-0.4-3.7-1.1
			c-1.3-0.7-2.4-1.8-3-3.2c-1.1-2.1-1.7-4.3-1.7-6.3h8.4L168.3,319.7L168.3,319.7z M150.3,310.8c1.3-1.5,3.2-2.1,5.4-2.2
			c0,0,0,0,0.2,0c2.4,0,4.3,0.7,5.6,2.2c1.5,1.5,2.1,3.3,2.1,5.8h-7.8H148C148,314.1,148.8,312.3,150.3,310.8z"/>
		<path fill="#A6A8AB" d="M178.7,311.9c0-3.6,0-5.4,0-5.6c-0.2-0.7-0.6-1.1-1.5-1.1c-0.2,0-0.6,0-0.9,0c-0.6,0-1.1,0-1.5,0v27.2
			h-1.7v1.1h8.6v-1.1h-2.6v-13c0-0.9,0-1.7,0.2-2.2c0.2-2.2,1.1-4.3,2.6-6c1.7-1.5,3.6-2.4,6-2.4h0.7v-4.1l-1.5-0.2
			C183.4,304.3,180.6,306.7,178.7,311.9z"/>
		<path fill="#A6A8AB" d="M217.9,316.5c0-4.3-0.7-7.5-2.2-9.1c-1.7-1.8-4.7-2.8-8.7-2.8c-0.2,0-0.4,0-0.7,0c-2.6,0-5,0.6-6.9,1.7
			c-2.6,1.3-4.1,3.3-4.5,6h4.1c0.4-1.7,1.3-3,2.8-3.6c0.9-0.6,2.4-0.7,4.5-0.7c0.2,0,0.4,0,0.4,0c2.6,0,4.5,0.6,5.6,1.5
			c1.1,1.1,1.7,2.8,1.7,5.4v1.1h-3.7c-1.3,0-2.6,0-3.9,0.2c-3,0.2-5.2,0.7-6.9,1.5c-1.7,0.7-3,1.8-3.9,3.2c-0.9,1.5-1.3,3-1.3,4.7
			c0,2.8,0.9,4.8,3,6.5c1.7,1.3,4.1,2.1,6.9,2.1c0.7,0,1.5,0,2.2-0.2c3.6-0.6,6-2.4,7.6-5.6l0.4,5.2h4.5c-0.4-1.3-0.7-3.3-0.7-6
			L217.9,316.5L217.9,316.5z M213.9,321.2c0,2.6-0.9,4.7-2.4,6.5c-1.5,1.7-3.2,2.6-5.2,2.8c-0.4,0.2-0.9,0.2-1.3,0.2
			c-1.8,0-3.2-0.4-4.3-1.1c-1.3-0.9-1.8-2.2-1.8-3.9c0-3.3,2.4-5.4,7.5-6.1c1.3-0.2,2.6-0.2,3.9-0.2h3.7V321.2z"/>
		<path fill="#A6A8AB" d="M244.5,305.2c-0.9,0-1.3,0.4-1.5,0.9c0,0,0,1.5,0,4.5c-1.8-4.1-4.8-6-8.9-6c-3.6,0-6.1,1.3-8,4.3
			c-0.7,1.5-1.3,4.5-1.3,8.9v15.6h4.3v-17.5c0-2.6,0.4-4.3,0.9-5.2c0.9-1.7,2.6-2.4,4.8-2.4s4.1,0.9,5.8,2.8
			c1.5,1.7,2.2,4.3,2.2,7.6v14.7h4.3v-28.3c-0.4,0-0.9,0-1.5,0C245.1,305.2,244.7,305.2,244.5,305.2z"/>
		<path fill="#A6A8AB" d="M274.5,329.9c-1.1-0.4-2.4-0.7-4.1-0.9c-0.7,0-2.2,0-4.3-0.2c-0.6,0-1.3,0-1.8,0c-2.6-0.2-4.3-0.4-4.8-0.4
			c-1.3-0.4-2.1-1.1-2.1-2.4c0-0.7,0.4-1.3,0.9-1.8c0.7-0.6,1.3-0.7,2.1-0.7c-0.2,0,0.4,0,1.8,0.2c0.4,0.2,1.1,0.2,2.1,0.2
			c3,0,5.2-0.7,7.1-2.1c2.4-1.8,3.7-4.3,3.7-7.1c0-2.6-0.9-5-2.8-7.1l-2.2-1.8c-1.7-0.7-3.7-1.1-5.8-1.1c-3,0-5.4,0.7-7.5,2.4
			c-2.2,1.8-3.3,4.3-3.3,7.1c0,3.2,1.3,5.6,3.7,7.5c-2.6,1.3-3.9,3-3.9,5c0,1.8,0.9,3.3,2.6,4.5c-2.8,1.1-4.3,3-4.3,5.8
			c0,2.8,1.7,5,4.8,6.3c1.8,0.6,4.5,0.9,7.8,1.1c0.2,0,0.4,0,0.6,0c9.3,0,14-2.8,14-8.2c0-1.3-0.4-2.6-1.3-3.7
			C276.7,331,275.8,330.3,274.5,329.9z M259.8,309.8c1.1-1.3,2.6-1.8,4.5-1.8c1.8,0,3.3,0.6,4.5,1.8c1.3,1.1,1.8,2.6,1.8,4.3
			c0,1.8-0.6,3.6-1.7,4.7s-2.8,1.7-4.7,1.7s-3.3-0.6-4.7-1.7c-1.1-1.1-1.7-2.6-1.7-4.5C257.9,312.4,258.5,310.9,259.8,309.8z
			 M272.1,339.6c-1.7,0.7-4.1,1.1-7.2,1.1c-0.2,0-0.4,0-0.6,0c-1.8,0-3.6-0.2-4.8-0.7c-2.2-0.7-3.6-2.1-3.6-3.7c0-1.7,1.1-3,3.2-3.9
			l5.2,0.4l1.5,0.2h2.8c4.1,0,6.1,1.1,6.1,3.3C274.7,337.7,273.8,338.8,272.1,339.6z"/>
		<path fill="#A6A8AB" d="M336.6,311.9h-0.2c0-3.6,0-5.4,0-5.6c-0.2-0.7-0.6-1.1-1.5-1.1c-0.2,0-0.4,0-0.9,0s-1.1,0-1.5,0v27.2h-1.7
			v1.1h8.6v-1.1h-2.6v-13c0-0.9,0.2-1.7,0.2-2.2c0.2-2.2,1.1-4.3,2.8-6c1.5-1.5,3.6-2.4,5.8-2.4h0.9v-4.1l-1.7-0.2
			C341.1,304.3,338.3,306.7,336.6,311.9z"/>
		<path fill="#A6A8AB" d="M376.2,319.7c0.2-4.1-0.7-7.5-2.8-10c-2.2-3-5.4-4.3-9.7-4.3c-4.1,0-7.2,1.3-9.5,4.1
			c-2.2,2.6-3.3,5.8-3.3,9.9c0,4.3,0.9,7.6,3.2,10.4c2.4,2.8,5.6,4.3,9.7,4.3c2.8,0,5.2-0.7,7.5-2.2c2.2-1.5,3.7-3.6,4.7-6l-6.7-0.2
			v1.3h1.7c-1.3,2.2-3.6,3.3-6.7,3.3c-0.2,0-0.4,0-0.4,0c-1.3,0-2.6-0.4-3.9-1.1c-1.3-0.7-2.2-1.8-3-3.2c-1.1-2.1-1.7-4.3-1.7-6.3
			h8.6L376.2,319.7L376.2,319.7z M358.2,310.8c1.5-1.5,3.3-2.1,5.6-2.2c2.4,0,4.5,0.7,5.8,2.2c1.3,1.5,2.1,3.3,1.8,5.8h-7.6h-7.8
			C355.9,314.1,356.7,312.3,358.2,310.8z"/>
		<path fill="#A6A8AB" d="M401.7,318.9c-1.1-0.7-3.2-1.5-5.8-1.8l-4.3-0.7c-2.1-0.4-3.3-0.7-3.6-0.7c-1.3-0.6-1.8-1.5-1.8-2.8
			c0-1.3,0.7-2.4,2.1-3.2c1.1-0.6,2.4-0.9,3.9-0.9c3.7,0,6,1.3,6.9,3.7l4.3-0.2c-1.1-4.7-4.8-7.1-11.1-7.1c-2.8,0-5.2,0.7-7.1,2.1
			c-2.2,1.5-3.3,3.6-3.3,6.3c0,2.2,0.9,3.9,2.6,5c1.3,0.9,3.3,1.7,6.1,2.1l4.5,0.9c3.7,0.6,5.6,2.1,5.6,4.3c0,1.5-0.7,2.8-2.2,3.6
			c-1.3,0.7-2.8,1.1-4.7,1.1c-5,0-7.8-1.5-8.2-4.5h-4.5c0.6,2.6,2.2,4.7,4.7,6.1c2.1,1.3,4.7,1.8,7.6,1.8c3.2,0,6-0.6,8-1.8
			c2.6-1.7,3.7-3.9,3.7-6.9C405,322.7,403.9,320.4,401.7,318.9z"/>
		<path fill="#A6A8AB" d="M430.7,318.9c-1.3-0.7-3.3-1.5-6-1.8l-4.1-0.7c-2.2-0.4-3.6-0.7-3.7-0.7c-1.3-0.6-1.8-1.5-1.8-2.8
			c0-1.3,0.7-2.4,2.1-3.2c1.1-0.6,2.4-0.9,3.9-0.9c3.7,0,6,1.3,6.9,3.7l4.5-0.2c-1.3-4.7-5-7.1-11.1-7.1c-3,0-5.4,0.7-7.2,2.1
			c-2.2,1.5-3.3,3.6-3.3,6.3c0,2.2,0.9,3.9,2.8,5c1.3,0.9,3.2,1.7,6,2.1l4.7,0.9c3.6,0.6,5.4,2.1,5.4,4.3c0,1.5-0.7,2.8-2.2,3.6
			c-1.3,0.7-2.8,1.1-4.5,1.1c-5.2,0-7.8-1.5-8.4-4.5h-4.5c0.7,2.6,2.2,4.7,4.7,6.1c2.2,1.3,4.8,1.8,7.8,1.8c3.2,0,5.8-0.6,7.8-1.8
			c2.6-1.7,3.9-3.9,3.9-6.9C434.1,322.7,432.9,320.4,430.7,318.9z"/>
		<path fill="#A6A8AB" d="M16.6,304.6c-0.4,0-0.6,0-0.9,0c-3.2,0.2-5.6,2.1-7.2,5.4H8v-0.4v-16.7v-3.6h1.8v-1.5H0.2v1.5h3.6v4.7
			v39.4h2.1l1.7-4.8c1.8,3.6,4.7,5.2,8.2,5.4c0.2,0,0.4,0,0.4,0c3.9,0,6.9-1.5,9.1-4.8c1.8-2.8,2.8-6.1,2.8-10.2
			c0-3.9-0.9-7.1-2.8-9.9C23.1,306.1,20.3,304.6,16.6,304.6z M21.6,326.9c-1.3,2.4-3.2,3.6-5.8,3.6c-0.2,0-0.2,0-0.2,0
			c-2.6,0-4.7-1.1-6-3.2c-1.1-1.5-1.7-3.6-1.7-5.6v-5c0-2.2,0.7-4.1,2.2-6c1.5-1.8,3.3-2.6,5.4-2.8c0,0,0,0,0.2,0
			c2.6,0,4.7,1.5,6,4.1c0.9,2.1,1.5,4.7,1.5,7.6C23.2,322.5,22.7,324.9,21.6,326.9z"/>
		<path fill="#A6A8AB" d="M315,304.4c-0.2,0-0.4,0-0.6,0c-3.6,0.2-6.3,1.8-8.2,5.4l-1.7-4.8h-2.1v39.4v4.8l-3.6-0.2v1.5h9.7v-1.5
			l-1.8,0.2v-3.7V329v-0.4h0.4c1.7,3.2,4.1,5,7.2,5.2c0.4,0,0.6,0,0.9,0c3.7,0,6.5-1.5,8.7-4.5c1.7-2.6,2.6-6,2.6-9.9
			c0-4.1-0.9-7.5-2.8-10.2C321.7,306.1,318.7,304.4,315,304.4z M320.6,326.4c-1.3,2.6-3.3,4.1-6,4.1c-0.2,0-0.2,0-0.2,0
			c-2.1-0.2-3.9-0.9-5.4-2.8c-1.5-1.7-2.2-3.7-2.2-6v-5c0-2.1,0.6-3.9,1.7-5.6c1.3-2.1,3.3-3.2,6-3.2c0,0,0,0,0.2,0
			c2.6,0,4.5,1.1,5.8,3.6c1.1,2.1,1.7,4.5,1.7,7.2C322.1,321.7,321.5,324.3,320.6,326.4z"/>
	</g>
	<path fill="#FEC057" d="M205.5,259.1c-3,1.1-5.8,2.6-8.4,4.5l-8.9-10.2c2.4-1.8,4.8-3.7,7.5-5.4L205.5,259.1z"/>
	<path fill="#007AC2" d="M195.6,264.6c-2.4,1.7-4.7,3.6-7.1,5.8l-8.7-10c2.1-1.8,4.5-3.9,6.9-6L195.6,264.6z"/>
	<path fill="#EF3E42" d="M187.1,271.7c-1.7,1.5-3.3,3.2-5,5c-0.4,0.4-0.9,0.9-1.5,1.5l-8.9-10.2c0.4-0.4,0.7-0.7,1.3-1.1
		c1.5-1.5,3.3-3.3,5.4-5.2L187.1,271.7z"/>
	<path fill="#A6A8AB" d="M223,241.2c10.8,2.4,46.9,32.7,48.4,40.2c0.9,5.2-4.1,9.1-8,6.9c-8.6-5-28.8-33.7-51.5-30.7
		c-1.3,0.2-2.6,0.6-3.9,0.9l-10.2-12.1c2.2-1.3,4.5-2.4,6.5-3.3C211.8,239.7,217,239.9,223,241.2L223,241.2z M179.1,279.9
		c-1.7,1.7-3.3,3.2-4.7,4.1c-8.6,7.1-15.2-0.4-10.2-7.2c1.5-2.1,3.6-4.5,6-7.1L179.1,279.9z"/>
</g>
</svg>
